<svg width="190" height="190" viewBox="0 0 190 190" fill="none" xmlns="http://www.w3.org/2000/svg">
<g clip-path="url(#clip0_1052_1027)">
<path d="M116.083 24.4644L125.51 77.2562L114.292 78.7322L104.902 26.0033H104.792C101.358 14.8545 87.3999 7.59998 72.273 9.60989C57.1826 11.5884 46.3672 22.0777 46.9518 33.6347L46.7692 33.6661L56.1595 86.3636L44.9788 87.8397L35.5519 35.0793L35.6615 35.0479C34.0172 19.5653 49.4365 5.02477 70.9576 2.19832C92.4788 -0.628124 112.246 9.26444 116.083 24.4644Z" fill="#BCADA0"/>
<path d="M189.598 172.005C187.917 181.018 180.025 185.792 173.96 187.017C155.508 190.691 99.3116 189.875 94.8904 189.812C90.4327 189.875 34.2366 190.691 15.7846 187.017C9.71925 185.792 1.82694 181.018 0.146171 172.005C-0.974342 166.017 5.63912 133.838 19.9866 75.4663H94.5981H95.1462H169.758C184.105 133.838 190.719 166.017 189.598 172.005V172.005Z" fill="#E5D3C1"/>
<path d="M189.598 172.131C187.917 181.113 180.025 185.886 173.96 187.111C155.508 190.785 99.3116 189.969 94.8904 189.906C90.4327 189.969 34.2366 190.785 15.7847 187.111C11.2904 186.2 5.77312 183.342 2.55774 178.255C2.94748 178.359 3.34941 178.454 3.76351 178.537C22.1789 182.212 78.4116 181.395 82.8327 181.301C87.2904 181.395 143.487 182.212 161.902 178.537C167.967 177.313 175.896 172.539 177.577 163.526C178.929 156.271 165.154 97.8267 159.819 75.5605H169.758C184.105 133.932 190.719 166.122 189.598 172.131V172.131Z" fill="#D8C3B4"/>
<path d="M15.7846 187.111C9.71921 185.886 1.8269 181.112 0.14613 172.099C-0.511562 168.55 2.48459 152.597 6.32113 134.633C12.6057 137.868 18.4519 142.013 23.275 146.693C35.2231 158.407 40.4115 174.078 43.4807 189.466C32.2634 189.058 21.9231 188.336 15.7846 187.111Z" fill="#626B77"/>
<path d="M3.76351 178.537C11.7289 180.108 26.7462 180.861 41.5808 181.207C42.3116 183.939 42.9327 186.703 43.4808 189.466C32.2635 189.058 21.9231 188.336 15.7847 187.111C11.2904 186.2 5.77312 183.342 2.55774 178.255C2.94748 178.359 3.34941 178.454 3.76351 178.537V178.537Z" fill="#555D66"/>
<path d="M146.263 189.466C149.333 174.078 154.521 158.407 166.506 146.693C171.292 142.013 177.138 137.868 183.423 134.633C187.296 152.597 190.256 168.55 189.598 172.099C187.917 181.112 180.025 185.886 173.96 187.111C167.821 188.336 157.481 189.058 146.263 189.466V189.466Z" fill="#626B77"/>
<path d="M189.708 170.749C189.708 170.77 189.708 170.791 189.708 170.812C189.708 171.356 189.671 171.785 189.598 172.099C187.917 181.112 180.025 185.886 173.96 187.111C167.821 188.336 157.481 189.058 146.263 189.466C146.885 186.357 147.579 183.248 148.419 180.139C153.827 179.731 158.504 179.197 161.902 178.537C167.967 177.312 175.896 172.539 177.577 163.526C178.052 160.95 176.627 151.843 174.325 140.192C177.175 138.119 180.244 136.266 183.423 134.633C186.712 149.927 189.379 163.745 189.671 169.744C189.671 169.744 189.671 169.754 189.671 169.775C189.671 169.838 189.671 169.901 189.671 169.964C189.671 170.026 189.671 170.089 189.671 170.152C189.695 170.194 189.708 170.236 189.708 170.278C189.708 170.34 189.708 170.393 189.708 170.435C189.708 170.477 189.708 170.508 189.708 170.529C189.708 170.613 189.708 170.686 189.708 170.749Z" fill="#555D66"/>
<path d="M137.458 167.954H55.7577C49.1808 167.954 43.8462 163.369 43.8462 157.747V75.4663H149.333V157.747C149.333 163.369 144.035 167.954 137.458 167.954Z" fill="#626B77"/>
<path d="M68.9846 101.721C69.009 112.482 66.5243 119.14 61.5307 121.694C56.5615 119.14 54.0769 112.482 54.0769 101.721C54.0769 91.7027 55.6481 76.1886 55.8673 75.5605H61.5307H67.1942C67.4134 76.1886 68.9846 91.7027 68.9846 101.721Z" fill="#E5D3C1"/>
<path d="M139.102 101.721C139.126 112.482 136.642 119.14 131.648 121.694C126.679 119.14 124.194 112.482 124.194 101.721C124.194 91.7027 125.765 76.1886 125.985 75.5605H131.648H137.348C137.531 76.1886 139.102 91.7027 139.102 101.721V101.721Z" fill="#E5D3C1"/>
<path d="M67.1942 81.3387H55.8673V27.9817H67.1942V81.3387Z" fill="#E5D3C1"/>
<path d="M137.312 81.3387H125.985V27.9817H137.312V81.3387Z" fill="#E5D3C1"/>
<path d="M55.9404 28.0132C57.0366 12.4677 74.8308 0.0627441 96.6443 0.0627441C118.421 0.0627441 136.252 12.4677 137.312 28.0132H125.875C124.45 16.5503 111.917 7.56853 96.6443 7.56853C81.3712 7.56853 68.802 16.5503 67.377 28.0132H55.9404Z" fill="#E5D3C1"/>
<path d="M55.9403 30.9969C55.916 30.5154 55.9038 30.0233 55.9038 29.5209C55.9038 29.0184 55.916 28.5159 55.9403 28.0134V30.9969Z" fill="#E5D3C1"/>
<path d="M111.077 132.686H82.5403V72.1372H111.077V132.686Z" fill="#E5D3C1"/>
<path d="M111.625 129.797H82.4307C80.6549 129.797 79.2153 131.034 79.2153 132.561V133.189C79.2153 134.715 80.6549 135.952 82.4307 135.952H111.625C113.401 135.952 114.84 134.715 114.84 133.189V132.561C114.84 131.034 113.401 129.797 111.625 129.797Z" fill="#BAC4CC"/>
<path d="M112.246 135.952L108.483 148.734H97.3384H86.1576L82.4307 135.952H97.3384H112.246Z" fill="#BAC4CC"/>
<path d="M112.319 135.952L108.556 148.734H97.4116H86.2673L85.8289 147.289H95.0366H106.181L109.506 135.952H112.319Z" fill="#A4ACB2"/>
<path d="M82.4307 135.952H112.319L111.26 139.281C110.675 137.962 106.924 137.302 100.006 137.302C93.0634 137.302 87.3268 137.24 82.796 137.114L82.4307 135.952Z" fill="#A4ACB2"/>
<g opacity="0.5">
<path opacity="0.5" d="M81.3345 131.21C82.248 130.613 83.7826 130.864 84.8057 130.896C88.2403 131 91.6628 131.105 95.073 131.21C95.4749 131.241 95.8768 131.241 96.2057 131.43C96.5345 131.618 96.7172 131.995 96.498 132.278C96.3153 132.56 95.8769 132.56 95.5115 132.56C91.7845 132.466 88.0576 132.121 84.3672 132.623C83.3442 132.78 82.3576 132.969 81.3345 133.031C79.9095 133.063 80.6403 131.649 81.3345 131.21V131.21Z" fill="white"/>
</g>
<g opacity="0.5">
<path opacity="0.5" d="M86.3039 137.931C87.5097 137.585 88.6424 138.433 88.6424 139.407C88.6424 140.914 88.7885 142.422 89.1174 143.898C89.1904 144.306 89.2635 144.84 88.8981 145.122C88.5693 145.342 88.0577 145.279 87.7289 145.028C87.4001 144.808 87.2539 144.463 87.1077 144.117C86.6327 143.018 86.4135 141.856 85.902 140.788C85.5001 139.878 84.8058 138.339 86.3039 137.931V137.931Z" fill="white"/>
</g>
<path d="M61.9327 99.648C63.5874 99.648 64.9288 98.495 64.9288 97.0728C64.9288 95.6505 63.5874 94.4976 61.9327 94.4976C60.2779 94.4976 58.9365 95.6505 58.9365 97.0728C58.9365 98.495 60.2779 99.648 61.9327 99.648Z" fill="#CCBCAE"/>
<path d="M61.202 98.7373C62.8567 98.7373 64.1981 97.5844 64.1981 96.1621C64.1981 94.7399 62.8567 93.5869 61.202 93.5869C59.5472 93.5869 58.2058 94.7399 58.2058 96.1621C58.2058 97.5844 59.5472 98.7373 61.202 98.7373Z" fill="#BAC4CC"/>
<path d="M64.1981 96.162C64.1981 97.6066 62.8462 98.7372 61.202 98.7372C60.1789 98.7372 59.302 98.2975 58.7539 97.638C59.2289 97.9207 59.8135 98.1091 60.4347 98.1091C62.1154 98.1091 63.4308 96.9471 63.4308 95.5339C63.4308 94.9686 63.2481 94.4661 62.9193 94.0579C63.6866 94.5289 64.1981 95.3141 64.1981 96.162Z" fill="#A4ACB2"/>
<g opacity="0.4">
<path opacity="0.4" d="M61.4943 94.4034C61.7136 94.4662 61.9693 94.5918 61.9328 94.7802C61.8963 94.9372 61.7501 95.0001 61.6405 95.0629C61.3847 95.1885 61.1289 95.2827 60.9097 95.4083C60.6905 95.5339 60.4713 95.691 60.3616 95.9108C60.2886 96.1306 60.3251 96.3505 60.2886 96.5703C60.252 96.7901 60.1059 97.0414 59.8501 97.0728C59.7405 97.1042 59.5943 97.0728 59.4847 97.01C58.9001 96.7273 58.7174 96.0364 58.9732 95.5339C59.3386 94.686 60.5078 94.1207 61.4943 94.4034V94.4034Z" fill="white"/>
</g>
<path d="M61.8231 111.236C63.4778 111.236 64.8192 110.083 64.8192 108.661C64.8192 107.239 63.4778 106.086 61.8231 106.086C60.1683 106.086 58.8269 107.239 58.8269 108.661C58.8269 110.083 60.1683 111.236 61.8231 111.236Z" fill="#CCBCAE"/>
<path d="M61.129 110.326C62.7837 110.326 64.1251 109.173 64.1251 107.751C64.1251 106.328 62.7837 105.175 61.129 105.175C59.4742 105.175 58.1328 106.328 58.1328 107.751C58.1328 109.173 59.4742 110.326 61.129 110.326Z" fill="#BAC4CC"/>
<path d="M64.0884 107.75C64.0884 109.164 62.773 110.326 61.1288 110.326C60.1057 110.326 59.1922 109.886 58.6442 109.226C59.1557 109.509 59.7403 109.666 60.3615 109.666C62.0057 109.666 63.3576 108.536 63.3576 107.122C63.3576 106.557 63.1384 106.055 62.8095 105.646C63.6134 106.117 64.0884 106.871 64.0884 107.75V107.75Z" fill="#A4ACB2"/>
<g opacity="0.4">
<path opacity="0.4" d="M61.4211 105.992C61.6403 106.023 61.8595 106.18 61.823 106.369C61.823 106.494 61.6768 106.588 61.5307 106.651C61.3115 106.777 61.0557 106.871 60.7999 106.997C60.5807 107.122 60.3615 107.279 60.2884 107.499C60.1788 107.719 60.2153 107.939 60.1788 108.159C60.1788 108.379 60.0326 108.63 59.7769 108.661C59.6307 108.693 59.4845 108.63 59.3749 108.598C58.8268 108.316 58.6442 107.625 58.8634 107.122C59.2288 106.274 60.398 105.709 61.4211 105.992V105.992Z" fill="white"/>
</g>
<path d="M132.05 100.559C133.705 100.559 135.046 99.4059 135.046 97.9837C135.046 96.5614 133.705 95.4084 132.05 95.4084C130.395 95.4084 129.054 96.5614 129.054 97.9837C129.054 99.4059 130.395 100.559 132.05 100.559Z" fill="#CCBCAE"/>
<path d="M131.356 99.648C133.011 99.648 134.352 98.495 134.352 97.0728C134.352 95.6505 133.011 94.4976 131.356 94.4976C129.701 94.4976 128.36 95.6505 128.36 97.0728C128.36 98.495 129.701 99.648 131.356 99.648Z" fill="#BAC4CC"/>
<path d="M134.315 97.0726C134.315 98.5173 133 99.6478 131.356 99.6478C130.333 99.6478 129.419 99.2082 128.871 98.5487C129.383 98.8313 129.967 98.9883 130.588 98.9883C132.233 98.9883 133.585 97.8578 133.585 96.4445C133.585 95.8793 133.365 95.3768 133.036 94.9685C133.804 95.4396 134.315 96.1933 134.315 97.0726V97.0726Z" fill="#A4ACB2"/>
<g opacity="0.4">
<path opacity="0.4" d="M131.648 95.3142C131.867 95.3771 132.086 95.5027 132.05 95.6911C132.013 95.8167 131.904 95.9109 131.758 95.9738C131.538 96.0994 131.283 96.1936 131.027 96.3192C130.808 96.4448 130.588 96.6018 130.515 96.8217C130.406 97.0415 130.442 97.2614 130.406 97.4812C130.369 97.701 130.26 97.9523 130.004 97.9837C129.858 98.0151 129.711 97.9523 129.602 97.9209C129.054 97.6382 128.871 96.9473 129.09 96.4448C129.456 95.5969 130.625 95.0316 131.648 95.3142V95.3142Z" fill="white"/>
</g>
<path d="M131.977 112.147C133.632 112.147 134.973 110.994 134.973 109.572C134.973 108.15 133.632 106.997 131.977 106.997C130.322 106.997 128.981 108.15 128.981 109.572C128.981 110.994 130.322 112.147 131.977 112.147Z" fill="#CCBCAE"/>
<path d="M131.246 111.236C132.901 111.236 134.242 110.083 134.242 108.661C134.242 107.239 132.901 106.086 131.246 106.086C129.591 106.086 128.25 107.239 128.25 108.661C128.25 110.083 129.591 111.236 131.246 111.236Z" fill="#BAC4CC"/>
<path d="M134.242 108.661C134.242 110.074 132.89 111.236 131.246 111.236C130.223 111.236 129.346 110.797 128.798 110.137C129.273 110.42 129.858 110.577 130.479 110.577C132.16 110.577 133.475 109.446 133.475 108.002C133.475 107.468 133.292 106.965 132.963 106.557C133.731 107.028 134.242 107.782 134.242 108.661V108.661Z" fill="#A4ACB2"/>
<g opacity="0.4">
<path opacity="0.4" d="M131.538 106.871C131.758 106.934 132.013 107.091 131.977 107.279C131.94 107.405 131.794 107.499 131.685 107.562C131.429 107.687 131.173 107.782 130.954 107.907C130.698 108.001 130.515 108.19 130.406 108.41C130.333 108.63 130.369 108.849 130.333 109.069C130.296 109.289 130.15 109.54 129.894 109.572C129.785 109.603 129.638 109.54 129.492 109.477C128.944 109.226 128.761 108.535 129.017 108.033C129.383 107.185 130.515 106.62 131.538 106.871V106.871Z" fill="white"/>
</g>
<g opacity="0.5">
<path opacity="0.5" d="M97.9596 73.6445C98.7634 73.6759 99.6038 73.7073 100.298 74.0214C101.029 74.3354 101.613 74.9635 101.467 75.6544C101.394 76.1255 100.992 76.5338 100.554 76.8164C97.6673 78.7949 92.7346 78.0098 90.6519 80.6164C89.8115 81.6214 89.6653 82.909 89.5557 84.1338C89.1416 88.0698 88.7397 91.9955 88.3499 95.9106C88.2769 96.5073 88.2038 97.104 87.8384 97.5751C87.473 98.0462 86.6692 98.3602 86.0846 98.0776C85.6461 97.8577 85.4634 97.4181 85.3538 97.0098C83.3442 91.0428 85.4269 84.5734 84.2211 78.4495C84.0019 77.2247 83.673 75.8743 84.4769 74.8693C86.2307 72.6395 95.3288 73.6131 97.9596 73.6445V73.6445Z" fill="white"/>
</g>
<g opacity="0.5">
<path opacity="0.5" d="M69.6788 9.64136C71.5422 8.16533 73.5153 6.65789 75.8903 5.90417C76.3653 5.74714 76.9134 5.62152 77.3518 5.87276C77.8999 6.124 77.973 6.81491 77.6441 7.31739C77.3518 7.78847 76.8038 8.07111 76.2922 8.38516C73.4057 9.924 70.4826 11.5571 68.3999 13.8496C63.9057 18.7802 64.1249 25.6579 62.6999 31.8133C62.5172 32.6612 62.0422 33.6976 61.0191 33.7918C59.8499 33.886 59.2288 32.6612 59.0461 31.6562C57.4749 22.8 62.3711 15.3885 69.6788 9.64136V9.64136Z" fill="white"/>
</g>
</g>
<defs>
<clipPath id="clip0_1052_1027">
<rect width="190" height="190" fill="white"/>
</clipPath>
</defs>
</svg>
