<svg width="278" height="268" viewBox="0 0 278 268" fill="none" xmlns="http://www.w3.org/2000/svg">
<g clip-path="url(#clip0_1052_1075)">
<path d="M154.013 95.6017L160.836 140.058L152.718 141.301L145.921 96.8975H145.842C143.356 87.5091 133.255 81.4 122.307 83.0926C111.385 84.7587 103.558 93.5918 103.981 103.324L103.849 103.35L110.645 147.727L102.553 148.97L95.7302 104.541L95.8096 104.514C94.6196 91.4761 105.779 79.2314 121.355 76.8513C136.93 74.4711 151.237 82.8017 154.013 95.6017Z" fill="#BCADA0"/>
<path d="M207.219 219.846C206.003 227.437 200.291 231.456 195.901 232.488C182.547 235.582 141.875 234.894 138.676 234.841C135.449 234.894 94.7782 235.582 81.4238 232.488C77.0341 231.456 71.3221 227.437 70.1057 219.846C69.2947 214.804 74.0811 187.705 84.4649 138.551H138.464H138.861H192.86C203.244 187.705 208.03 214.804 207.219 219.846V219.846Z" fill="#E5D3C1"/>
<path d="M207.219 219.952C206.003 227.516 200.291 231.536 195.901 232.567C182.547 235.661 141.875 234.974 138.676 234.921C135.449 234.974 94.7782 235.661 81.4239 232.567C78.1712 231.8 74.1782 229.394 71.8511 225.109C72.1331 225.197 72.424 225.277 72.7237 225.347C86.0516 228.441 126.749 227.754 129.949 227.675C133.175 227.754 173.847 228.441 187.174 225.347C191.564 224.316 197.303 220.296 198.519 212.706C199.497 206.597 189.528 157.38 185.667 138.63H192.86C203.244 187.785 208.03 214.892 207.219 219.952V219.952Z" fill="#D8C3B4"/>
<path d="M81.4239 232.567C77.0341 231.536 71.3222 227.516 70.1057 219.926C69.6297 216.937 71.7982 203.503 74.5748 188.375C79.1232 191.099 83.3543 194.59 86.8449 198.531C95.4922 208.395 99.2473 221.592 101.469 234.55C93.3502 234.207 85.8665 233.598 81.4239 232.567Z" fill="#626B77"/>
<path d="M72.7237 225.347C78.4886 226.669 89.3572 227.304 100.094 227.595C100.622 229.896 101.072 232.223 101.469 234.55C93.3502 234.207 85.8665 233.598 81.4239 232.567C78.1712 231.8 74.1782 229.393 71.8511 225.109C72.1331 225.197 72.424 225.277 72.7237 225.347V225.347Z" fill="#555D66"/>
<path d="M175.856 234.55C178.078 221.592 181.833 208.395 190.506 198.531C193.971 194.59 198.202 191.099 202.75 188.375C205.553 203.503 207.695 216.937 207.219 219.926C206.003 227.516 200.291 231.536 195.901 232.567C191.458 233.598 183.975 234.207 175.856 234.55V234.55Z" fill="#626B77"/>
<path d="M207.299 218.788C207.299 218.806 207.299 218.824 207.299 218.841C207.299 219.3 207.272 219.661 207.219 219.926C206.003 227.516 200.291 231.536 195.901 232.567C191.458 233.598 183.975 234.207 175.856 234.55C176.306 231.932 176.808 229.314 177.417 226.696C181.33 226.352 184.715 225.903 187.174 225.347C191.564 224.316 197.303 220.296 198.519 212.706C198.863 210.537 197.831 202.868 196.166 193.056C198.228 191.311 200.449 189.75 202.75 188.375C205.13 201.255 207.061 212.891 207.272 217.942C207.272 217.942 207.272 217.951 207.272 217.969C207.272 218.022 207.272 218.074 207.272 218.127C207.272 218.18 207.272 218.233 207.272 218.286C207.29 218.321 207.299 218.357 207.299 218.392C207.299 218.445 207.299 218.489 207.299 218.524C207.299 218.559 207.299 218.586 207.299 218.603C207.299 218.674 207.299 218.736 207.299 218.788Z" fill="#555D66"/>
<path d="M169.483 216.435H110.354C105.594 216.435 101.733 212.574 101.733 207.84V138.551H178.078V207.84C178.078 212.574 174.243 216.435 169.483 216.435Z" fill="#626B77"/>
<path d="M119.927 160.66C119.944 169.722 118.146 175.329 114.532 177.479C110.936 175.329 109.137 169.722 109.137 160.66C109.137 152.223 110.275 139.159 110.433 138.63H114.532H118.631C118.79 139.159 119.927 152.223 119.927 160.66Z" fill="#E5D3C1"/>
<path d="M170.673 160.66C170.691 169.722 168.893 175.329 165.279 177.479C161.682 175.329 159.884 169.722 159.884 160.66C159.884 152.223 161.021 139.159 161.18 138.63H165.279H169.404C169.536 139.159 170.673 152.223 170.673 160.66V160.66Z" fill="#E5D3C1"/>
<path d="M118.631 143.496H110.433V98.5635H118.631V143.496Z" fill="#E5D3C1"/>
<path d="M169.377 143.496H161.18V98.5635H169.377V143.496Z" fill="#E5D3C1"/>
<path d="M110.486 98.5902C111.28 85.4993 124.158 75.053 139.945 75.053C155.706 75.053 168.611 85.4993 169.378 98.5902H161.1C160.069 88.9373 150.999 81.3736 139.945 81.3736C128.891 81.3736 119.795 88.9373 118.763 98.5902H110.486Z" fill="#E5D3C1"/>
<path d="M110.486 101.102C110.468 100.697 110.46 100.283 110.46 99.8595C110.46 99.4364 110.468 99.0132 110.486 98.5901V101.102Z" fill="#E5D3C1"/>
<path d="M150.39 186.735H129.737V135.747H150.39V186.735Z" fill="#E5D3C1"/>
<path d="M150.787 184.302H129.658C128.373 184.302 127.331 185.344 127.331 186.63V187.159C127.331 188.444 128.373 189.486 129.658 189.486H150.787C152.072 189.486 153.114 188.444 153.114 187.159V186.63C153.114 185.344 152.072 184.302 150.787 184.302Z" fill="#BAC4CC"/>
<path d="M151.237 189.486L148.513 200.249H140.447H132.356L129.658 189.486H140.447H151.237Z" fill="#BAC4CC"/>
<path d="M151.29 189.486L148.566 200.249H140.5H132.435L132.118 199.033H138.782H146.847L149.253 189.486H151.29Z" fill="#A4ACB2"/>
<path d="M129.658 189.486H151.29L150.523 192.289C150.1 191.178 147.385 190.623 142.378 190.623C137.353 190.623 133.202 190.57 129.923 190.464L129.658 189.486Z" fill="#A4ACB2"/>
<g opacity="0.5">
<path opacity="0.5" d="M128.865 185.492C129.526 184.99 130.637 185.202 131.377 185.228C133.863 185.316 136.34 185.404 138.808 185.492C139.099 185.519 139.39 185.519 139.628 185.678C139.866 185.836 139.998 186.154 139.839 186.392C139.707 186.63 139.39 186.63 139.125 186.63C136.428 186.55 133.731 186.259 131.06 186.683C130.319 186.815 129.605 186.973 128.865 187.026C127.833 187.053 128.362 185.863 128.865 185.492V185.492Z" fill="white"/>
</g>
<g opacity="0.5">
<path opacity="0.5" d="M132.461 191.152C133.334 190.861 134.154 191.575 134.154 192.395C134.154 193.665 134.26 194.934 134.498 196.177C134.55 196.521 134.603 196.97 134.339 197.208C134.101 197.393 133.731 197.341 133.493 197.129C133.255 196.944 133.149 196.653 133.043 196.362C132.699 195.436 132.541 194.458 132.17 193.559C131.88 192.792 131.377 191.496 132.461 191.152V191.152Z" fill="white"/>
</g>
<path d="M114.823 158.914C116.021 158.914 116.991 157.943 116.991 156.746C116.991 155.548 116.021 154.577 114.823 154.577C113.625 154.577 112.655 155.548 112.655 156.746C112.655 157.943 113.625 158.914 114.823 158.914Z" fill="#CCBCAE"/>
<path d="M114.294 158.147C115.492 158.147 116.463 157.176 116.463 155.979C116.463 154.781 115.492 153.81 114.294 153.81C113.097 153.81 112.126 154.781 112.126 155.979C112.126 157.176 113.097 158.147 114.294 158.147Z" fill="#BAC4CC"/>
<path d="M116.463 155.979C116.463 157.195 115.484 158.147 114.294 158.147C113.554 158.147 112.919 157.777 112.522 157.222C112.866 157.46 113.289 157.618 113.739 157.618C114.955 157.618 115.907 156.64 115.907 155.45C115.907 154.974 115.775 154.551 115.537 154.207C116.092 154.603 116.463 155.265 116.463 155.979Z" fill="#A4ACB2"/>
<g opacity="0.4">
<path opacity="0.4" d="M114.506 154.497C114.664 154.55 114.849 154.656 114.823 154.815C114.797 154.947 114.691 155 114.611 155.053C114.426 155.159 114.241 155.238 114.083 155.344C113.924 155.45 113.765 155.582 113.686 155.767C113.633 155.952 113.659 156.137 113.633 156.322C113.607 156.507 113.501 156.719 113.316 156.745C113.236 156.772 113.131 156.745 113.051 156.693C112.628 156.454 112.496 155.873 112.681 155.45C112.945 154.735 113.792 154.259 114.506 154.497V154.497Z" fill="white"/>
</g>
<path d="M114.744 168.673C115.941 168.673 116.912 167.702 116.912 166.504C116.912 165.306 115.941 164.335 114.744 164.335C113.546 164.335 112.575 165.306 112.575 166.504C112.575 167.702 113.546 168.673 114.744 168.673Z" fill="#CCBCAE"/>
<path d="M114.241 167.906C115.439 167.906 116.41 166.935 116.41 165.737C116.41 164.54 115.439 163.569 114.241 163.569C113.044 163.569 112.073 164.54 112.073 165.737C112.073 166.935 113.044 167.906 114.241 167.906Z" fill="#BAC4CC"/>
<path d="M116.383 165.737C116.383 166.927 115.431 167.906 114.241 167.906C113.501 167.906 112.84 167.536 112.443 166.98C112.813 167.218 113.236 167.35 113.686 167.35C114.876 167.35 115.854 166.398 115.854 165.208C115.854 164.732 115.696 164.309 115.458 163.965C116.039 164.362 116.383 164.997 116.383 165.737V165.737Z" fill="#A4ACB2"/>
<g opacity="0.4">
<path opacity="0.4" d="M114.453 164.256C114.611 164.283 114.77 164.415 114.744 164.574C114.744 164.679 114.638 164.759 114.532 164.812C114.373 164.917 114.188 164.997 114.003 165.103C113.844 165.208 113.686 165.341 113.633 165.526C113.554 165.711 113.58 165.896 113.554 166.081C113.554 166.266 113.448 166.478 113.263 166.504C113.157 166.531 113.051 166.478 112.972 166.451C112.575 166.213 112.443 165.631 112.602 165.208C112.866 164.494 113.712 164.018 114.453 164.256V164.256Z" fill="white"/>
</g>
<path d="M165.569 159.681C166.767 159.681 167.738 158.71 167.738 157.512C167.738 156.315 166.767 155.344 165.569 155.344C164.372 155.344 163.401 156.315 163.401 157.512C163.401 158.71 164.372 159.681 165.569 159.681Z" fill="#CCBCAE"/>
<path d="M165.067 158.914C166.265 158.914 167.235 157.943 167.235 156.746C167.235 155.548 166.265 154.577 165.067 154.577C163.869 154.577 162.899 155.548 162.899 156.746C162.899 157.943 163.869 158.914 165.067 158.914Z" fill="#BAC4CC"/>
<path d="M167.209 156.746C167.209 157.962 166.257 158.914 165.067 158.914C164.327 158.914 163.665 158.544 163.269 157.989C163.639 158.227 164.062 158.359 164.512 158.359C165.702 158.359 166.68 157.407 166.68 156.217C166.68 155.741 166.521 155.317 166.283 154.974C166.839 155.37 167.209 156.005 167.209 156.746V156.746Z" fill="#A4ACB2"/>
<g opacity="0.4">
<path opacity="0.4" d="M165.279 155.265C165.437 155.317 165.596 155.423 165.569 155.582C165.543 155.688 165.464 155.767 165.358 155.82C165.199 155.926 165.014 156.005 164.829 156.111C164.67 156.217 164.512 156.349 164.459 156.534C164.38 156.719 164.406 156.904 164.38 157.089C164.353 157.274 164.274 157.486 164.089 157.512C163.983 157.539 163.877 157.486 163.798 157.46C163.401 157.222 163.269 156.64 163.428 156.217C163.692 155.503 164.538 155.027 165.279 155.265V155.265Z" fill="white"/>
</g>
<path d="M165.517 169.439C166.714 169.439 167.685 168.469 167.685 167.271C167.685 166.073 166.714 165.102 165.517 165.102C164.319 165.102 163.348 166.073 163.348 167.271C163.348 168.469 164.319 169.439 165.517 169.439Z" fill="#CCBCAE"/>
<path d="M164.988 168.673C166.185 168.673 167.156 167.702 167.156 166.504C167.156 165.306 166.185 164.335 164.988 164.335C163.79 164.335 162.819 165.306 162.819 166.504C162.819 167.702 163.79 168.673 164.988 168.673Z" fill="#BAC4CC"/>
<path d="M167.156 166.504C167.156 167.694 166.178 168.673 164.988 168.673C164.247 168.673 163.613 168.302 163.216 167.747C163.56 167.985 163.983 168.117 164.432 168.117C165.649 168.117 166.601 167.165 166.601 165.949C166.601 165.499 166.469 165.076 166.231 164.732C166.786 165.129 167.156 165.764 167.156 166.504V166.504Z" fill="#A4ACB2"/>
<g opacity="0.4">
<path opacity="0.4" d="M165.199 164.997C165.358 165.05 165.543 165.182 165.516 165.34C165.49 165.446 165.384 165.526 165.305 165.578C165.12 165.684 164.935 165.764 164.776 165.869C164.591 165.949 164.459 166.107 164.379 166.293C164.326 166.478 164.353 166.663 164.326 166.848C164.3 167.033 164.194 167.245 164.009 167.271C163.93 167.297 163.824 167.245 163.718 167.192C163.322 166.98 163.189 166.398 163.374 165.975C163.639 165.261 164.459 164.785 165.199 164.997V164.997Z" fill="white"/>
</g>
<g opacity="0.5">
<path opacity="0.5" d="M140.897 137.017C141.479 137.043 142.087 137.069 142.589 137.334C143.118 137.598 143.541 138.127 143.436 138.709C143.383 139.106 143.092 139.45 142.775 139.688C140.685 141.354 137.116 140.693 135.608 142.888C135 143.734 134.894 144.818 134.815 145.85C134.515 149.164 134.224 152.47 133.942 155.767C133.889 156.269 133.836 156.772 133.572 157.169C133.308 157.565 132.726 157.83 132.303 157.592C131.985 157.407 131.853 157.036 131.774 156.693C130.319 151.668 131.827 146.22 130.954 141.063C130.795 140.031 130.557 138.894 131.139 138.048C132.408 136.17 138.993 136.99 140.897 137.017V137.017Z" fill="white"/>
</g>
<g opacity="0.5">
<path opacity="0.5" d="M120.429 83.119C121.778 81.876 123.206 80.6066 124.925 79.9719C125.268 79.8396 125.665 79.7339 125.982 79.9454C126.379 80.157 126.432 80.7388 126.194 81.162C125.982 81.5587 125.586 81.7967 125.216 82.0611C123.126 83.357 121.011 84.7322 119.504 86.6628C116.251 90.8149 116.41 96.6066 115.378 101.79C115.246 102.504 114.902 103.377 114.162 103.456C113.316 103.536 112.866 102.504 112.734 101.658C111.597 94.2 115.14 87.9587 120.429 83.119V83.119Z" fill="white"/>
</g>
</g>
<defs>
<clipPath id="clip0_1052_1075">
<rect width="137.51" height="160" fill="white" transform="translate(70 75)"/>
</clipPath>
</defs>
</svg>
