<svg width="113" height="90" viewBox="0 0 113 90" fill="none" xmlns="http://www.w3.org/2000/svg">
<rect x="13.5829" y="-13.6292" width="126.23" height="16.6503" transform="rotate(29.755 13.5829 -13.6292)" fill="#3CB64B"/>
<line x1="4.25041" y1="-19.4328" x2="163.25" y2="72.5672" stroke="#3CB64B"/>
<line x1="0.250411" y1="-2.43278" x2="159.25" y2="89.5672" stroke="#3CB64B"/>
<path d="M33.5813 7.66832C33.92 7.07866 34.3328 6.63305 34.8196 6.33147C35.3105 6.02296 35.8338 5.86684 36.3895 5.86311C36.9521 5.86335 37.504 6.01887 38.0451 6.32965C38.7457 6.73208 39.2239 7.23275 39.4796 7.83166C39.7422 8.43455 39.773 9.0796 39.572 9.76681L38.5523 9.1811C38.6544 8.77846 38.621 8.39487 38.4521 8.03033C38.2902 7.66977 38.0011 7.36996 37.5849 7.1309C37.0438 6.82011 36.4991 6.7564 35.951 6.93976C35.4068 7.11617 34.9395 7.5443 34.549 8.22415C34.1546 8.91093 34.0163 9.53725 34.1341 10.1031C34.2519 10.669 34.5814 11.1073 35.1225 11.4181C35.5387 11.6571 35.9414 11.7592 36.3304 11.7244C36.7195 11.6895 37.0696 11.5216 37.3809 11.2206L38.4006 11.8063C37.9133 12.3014 37.3391 12.5943 36.6781 12.6852C36.021 12.7691 35.3491 12.6138 34.6623 12.2193C34.1212 11.9085 33.7088 11.5102 33.4251 11.0244C33.1483 10.5425 33.0195 10.0118 33.0386 9.43239C33.0578 8.85294 33.2386 8.26492 33.5813 7.66832ZM41.0454 15.8855C40.5112 15.5787 40.0954 15.1784 39.7978 14.6846C39.5071 14.1947 39.3644 13.6561 39.3697 13.0687C39.3859 12.4783 39.5633 11.8883 39.902 11.2987C40.2367 10.7159 40.6564 10.2743 41.1611 9.97376C41.6768 9.67027 42.2209 9.5261 42.7934 9.54125C43.3699 9.54947 43.9287 9.70897 44.4698 10.0198C45.0109 10.3305 45.4302 10.7328 45.7278 11.2267C46.0294 11.7135 46.1776 12.2507 46.1723 12.8381C46.174 13.4295 46.0055 14.02 45.6668 14.6097C45.3281 15.1994 44.8975 15.6439 44.3749 15.9435C43.8632 16.24 43.3156 16.3822 42.7322 16.37C42.1488 16.3578 41.5865 16.1963 41.0454 15.8855ZM41.5235 15.053C41.8635 15.2483 42.2284 15.3518 42.6183 15.3636C43.0083 15.3753 43.3851 15.2735 43.7487 15.058C44.1193 14.8464 44.4361 14.5117 44.6991 14.0539C44.962 13.596 45.095 13.1557 45.0979 12.733C45.1008 12.3103 45.0004 11.939 44.7967 11.619C44.597 11.2921 44.3272 11.0311 43.9872 10.8358C43.6404 10.6366 43.2755 10.5331 42.8925 10.5253C42.5204 10.5146 42.156 10.619 41.7993 10.8385C41.4425 11.0579 41.1327 11.3966 40.8697 11.8545C40.6028 12.3193 40.4609 12.759 40.4441 13.1738C40.4343 13.5925 40.5257 13.9633 40.7185 14.2862C40.9153 14.6022 41.1836 14.8578 41.5235 15.053ZM55.4606 16.3186C55.9046 16.5736 56.2462 16.8943 56.4855 17.2809C56.7288 17.6604 56.8454 18.0918 56.8354 18.5751C56.8254 19.0583 56.669 19.5635 56.3662 20.0907L54.4357 23.4518L53.4992 22.9139L55.352 19.6881C55.6787 19.1193 55.7855 18.604 55.6724 18.1423C55.5702 17.6777 55.2798 17.308 54.8012 17.033C54.3086 16.7501 53.825 16.6846 53.3504 16.8363C52.8797 16.9812 52.4731 17.3519 52.1304 17.9485L50.3255 21.091L49.3889 20.5531L51.2417 17.3273C51.5684 16.7585 51.6752 16.2432 51.5621 15.7816C51.46 15.317 51.1695 14.9472 50.6909 14.6723C50.1983 14.3894 49.7147 14.3238 49.2401 14.4756C48.7694 14.6204 48.3628 14.9911 48.0201 15.5877L46.2152 18.7303L45.2683 18.1864L48.5434 12.484L49.4904 13.0279L49.0182 13.85C49.3769 13.6592 49.7581 13.5737 50.1619 13.5935C50.5726 13.6172 50.9688 13.7387 51.3503 13.9578C51.829 14.2327 52.1904 14.5833 52.4346 15.0095C52.6787 15.4357 52.7714 15.9088 52.7127 16.4286C53.1034 16.1179 53.5463 15.9571 54.0415 15.9463C54.5367 15.9355 55.0097 16.0596 55.4606 16.3186ZM60.2852 17.9964C60.1049 17.8928 59.9881 17.7427 59.9349 17.5461C59.8818 17.3495 59.907 17.161 60.0106 16.9807C60.1142 16.8003 60.2643 16.6835 60.4609 16.6304C60.6575 16.5772 60.846 16.6025 61.0263 16.7061C61.1998 16.8057 61.3096 16.9518 61.3558 17.1444C61.4089 17.341 61.3837 17.5294 61.2801 17.7098C61.1765 17.8902 61.0264 18.0069 60.8298 18.0601C60.6402 18.1172 60.4586 18.096 60.2852 17.9964ZM60.2112 19.1855L56.936 24.8878L55.989 24.3439L59.2642 18.6416L60.2112 19.1855ZM64.6631 21.6041C65.3568 22.0025 65.7972 22.5369 65.9843 23.2071C66.1753 23.8703 66.0437 24.5974 65.5895 25.3882L63.6591 28.7493L62.7225 28.2114L64.5753 24.9856C64.902 24.4167 65.0088 23.9015 64.8957 23.4398C64.7866 22.9712 64.4858 22.5955 63.9933 22.3126C63.4938 22.0257 63.0053 21.9527 62.5277 22.0935C62.057 22.2384 61.6503 22.6091 61.3077 23.2057L59.4968 26.3586L58.5498 25.8148L61.825 20.1124L62.7719 20.6563L62.3058 21.4679C62.6604 21.2841 63.0431 21.2041 63.4539 21.2278C63.8716 21.2555 64.2746 21.381 64.6631 21.6041ZM70.8865 25.1924C71.3791 25.4753 71.7474 25.8298 71.9916 26.2561C72.2427 26.6863 72.3648 27.1162 72.3579 27.5459L72.9555 26.5053L73.9129 27.0551L70.566 32.8824C70.2671 33.4026 69.8912 33.8002 69.4381 34.0751C68.981 34.3569 68.4786 34.4927 67.9309 34.4826C67.3901 34.4764 66.8457 34.3159 66.2977 34.0012C65.5485 33.5709 65.0257 33.0354 64.7294 32.3947C64.4332 31.754 64.4153 31.1025 64.6757 30.4403L65.6122 30.9782C65.5171 31.3848 65.5727 31.7858 65.7793 32.1812C65.9818 32.5835 66.312 32.9161 66.7698 33.1791C67.2901 33.4779 67.8069 33.558 68.3202 33.4192C68.8405 33.2844 69.2699 32.9222 69.6086 32.3325L70.2959 31.1358C69.9174 31.3612 69.4805 31.4794 68.9853 31.4902C68.4902 31.501 67.9963 31.365 67.5038 31.0821C66.9974 30.7912 66.6078 30.4014 66.335 29.9126C66.0691 29.4277 65.9478 28.8921 65.9709 28.3058C65.994 27.7194 66.1709 27.1383 66.5016 26.5625C66.8363 25.9798 67.2471 25.5376 67.734 25.236C68.2248 24.9275 68.7447 24.7694 69.2934 24.7617C69.8491 24.758 70.3801 24.9015 70.8865 25.1924ZM71.3239 29.3461C71.571 28.9159 71.6994 28.4915 71.7092 28.0728C71.7191 27.6541 71.6227 27.2758 71.42 26.938C71.2283 26.5972 70.9555 26.3252 70.6017 26.122C70.2479 25.9188 69.8775 25.8168 69.4905 25.8159C69.1035 25.8151 68.7317 25.9244 68.375 26.1439C68.0183 26.3634 67.7164 26.6882 67.4694 27.1183C67.2183 27.5554 67.0859 27.9867 67.0721 28.4124C67.0622 28.8311 67.1532 29.2108 67.3449 29.5516C67.5407 29.8854 67.8154 30.154 68.1692 30.3572C68.523 30.5604 68.8934 30.6624 69.2804 30.6633C69.6783 30.6612 70.0556 30.5504 70.4123 30.3309C70.773 30.1044 71.0769 29.7762 71.3239 29.3461ZM76.977 36.5231C76.54 36.2721 76.1899 35.9741 75.9267 35.6292C75.6675 35.2774 75.513 34.9119 75.4632 34.5327C75.4174 34.1466 75.4837 33.7741 75.6621 33.4153L76.6403 33.9771C76.5047 34.2775 76.503 34.5856 76.6353 34.9014C76.7745 35.2213 77.0383 35.4927 77.4268 35.7159C77.7875 35.923 78.1178 36.0066 78.4175 35.9666C78.7173 35.9266 78.9369 35.7852 79.0764 35.5424C79.2198 35.2926 79.2144 35.045 79.0601 34.7996C78.9099 34.5472 78.6362 34.2286 78.2391 33.8437C77.8797 33.4897 77.5966 33.1795 77.3898 32.9131C77.1939 32.6437 77.0626 32.3423 76.9959 32.0087C76.9401 31.6722 77.0178 31.3201 77.2289 30.9525C77.3963 30.6611 77.6364 30.4438 77.9493 30.3006C78.2622 30.1575 78.618 30.1081 79.0168 30.1527C79.4196 30.1903 79.8256 30.3266 80.2349 30.5617C80.8662 30.9243 81.2844 31.3767 81.4896 31.9189C81.6948 32.4612 81.6519 33.0177 81.3609 33.5886L80.414 33.0448C80.5645 32.7345 80.5806 32.4255 80.4622 32.1176C80.3507 31.8137 80.1112 31.5562 79.7435 31.345C79.4036 31.1498 79.0912 31.0672 78.8063 31.0973C78.5215 31.1275 78.3113 31.2605 78.1759 31.4963C78.0683 31.6836 78.0376 31.8736 78.0838 32.0662C78.1409 32.2559 78.2378 32.4406 78.3743 32.6205C78.5218 32.7975 78.7326 33.0247 79.0069 33.3021C79.3524 33.6482 79.6217 33.9505 79.8146 34.2089C80.0115 34.4604 80.1384 34.7454 80.1952 35.0641C80.259 35.3867 80.1948 35.7234 80.0025 36.0743C79.8232 36.3865 79.5751 36.6176 79.2582 36.7677C78.9413 36.9179 78.5815 36.9741 78.1787 36.9365C77.7869 36.896 77.3863 36.7582 76.977 36.5231ZM82.8819 39.9146C82.3477 39.6078 81.9318 39.2075 81.6342 38.7136C81.3436 38.2238 81.2009 37.6852 81.2062 37.0978C81.2224 36.5074 81.3998 35.9174 81.7385 35.3277C82.0732 34.745 82.4929 34.3034 82.9976 34.0028C83.5133 33.6993 84.0574 33.5552 84.6299 33.5703C85.2064 33.5785 85.7652 33.738 86.3063 34.0488C86.8474 34.3596 87.2667 34.7619 87.5643 35.2557C87.8659 35.7426 88.014 36.2798 88.0088 36.8672C88.0104 37.4586 87.8419 38.0491 87.5033 38.6388C87.1646 39.2284 86.7339 39.673 86.2113 39.9725C85.6997 40.2691 85.1521 40.4113 84.5687 40.3991C83.9852 40.3869 83.423 40.2254 82.8819 39.9146ZM83.36 39.0821C83.6999 39.2773 84.0649 39.3809 84.4548 39.3926C84.8447 39.4044 85.2215 39.3025 85.5852 39.087C85.9558 38.8755 86.2725 38.5408 86.5355 38.0829C86.7985 37.6251 86.9314 37.1848 86.9344 36.7621C86.9373 36.3394 86.8369 35.9681 86.6332 35.6481C86.4335 35.3212 86.1636 35.0601 85.8237 34.8649C85.4768 34.6657 85.1119 34.5622 84.7289 34.5544C84.3568 34.5436 83.9924 34.648 83.6357 34.8675C83.279 35.087 82.9692 35.4257 82.7062 35.8835C82.4392 36.3483 82.2974 36.7881 82.2806 37.2028C82.2707 37.6216 82.3622 37.9924 82.555 38.3153C82.7517 38.6313 83.0201 38.8869 83.36 39.0821ZM89.5379 43.7375C89.0037 43.4307 88.5879 43.0304 88.2903 42.5366C87.9996 42.0467 87.8569 41.5081 87.8622 40.9207C87.8784 40.3303 88.0558 39.7403 88.3945 39.1507C88.7292 38.5679 89.1489 38.1263 89.6536 37.8258C90.1693 37.5223 90.7134 37.3781 91.2859 37.3933C91.8624 37.4015 92.4212 37.561 92.9623 37.8718C93.5034 38.1825 93.9227 38.5848 94.2203 39.0787C94.5219 39.5655 94.6701 40.1027 94.6648 40.6901C94.6665 41.2815 94.498 41.872 94.1593 42.4617C93.8206 43.0514 93.39 43.496 92.8674 43.7955C92.3557 44.092 91.8081 44.2342 91.2247 44.222C90.6413 44.2098 90.079 44.0483 89.5379 43.7375ZM90.016 42.9051C90.356 43.1003 90.7209 43.2038 91.1108 43.2156C91.5008 43.2273 91.8776 43.1255 92.2412 42.91C92.6118 42.6984 92.9286 42.3637 93.1916 41.9059C93.4545 41.448 93.5875 41.0077 93.5904 40.585C93.5933 40.1623 93.4929 39.791 93.2892 39.471C93.0895 39.1441 92.8197 38.8831 92.4797 38.6878C92.1329 38.4886 91.768 38.3851 91.3849 38.3773C91.0129 38.3666 90.6485 38.471 90.2918 38.6905C89.935 38.91 89.6252 39.2486 89.3622 39.7065C89.0953 40.1713 88.9534 40.611 88.9366 41.0258C88.9268 41.4445 89.0182 41.8153 89.211 42.1382C89.4078 42.4542 89.6761 42.7098 90.016 42.9051ZM99.874 41.8277C100.568 42.2262 101.008 42.7605 101.195 43.4307C101.386 44.094 101.255 44.821 100.8 45.6118L98.87 48.9729L97.9335 48.435L99.7862 45.2092C100.113 44.6404 100.22 44.1251 100.107 43.6635C99.9975 43.1949 99.6967 42.8191 99.2042 42.5362C98.7047 42.2493 98.2162 42.1763 97.7386 42.3172C97.2679 42.462 96.8613 42.8327 96.5186 43.4293L94.7077 46.5823L93.7607 46.0384L97.0359 40.336L97.9829 40.8799L97.5167 41.6915C97.8713 41.5078 98.254 41.4277 98.6648 41.4515C99.0825 41.4792 99.4856 41.6046 99.874 41.8277Z" fill="white"/>
</svg>
