<?xml version="1.0" encoding="UTF-8"?>
<svg xmlns="http://www.w3.org/2000/svg" xmlns:xlink="http://www.w3.org/1999/xlink" viewBox="0 0 50 50" width="50px" height="50px">
<g id="surface98843065">
<path style=" stroke:none;fill-rule:nonzero;fill:rgb(100%,100%,100%);fill-opacity:1;" d="M 17.1875 5.207031 C 10.589844 5.207031 5.207031 10.589844 5.207031 17.1875 L 5.207031 32.8125 C 5.207031 39.410156 10.589844 44.792969 17.1875 44.792969 L 32.8125 44.792969 C 39.410156 44.792969 44.792969 39.410156 44.792969 32.8125 L 44.792969 17.1875 C 44.792969 10.589844 39.410156 5.207031 32.8125 5.207031 Z M 17.1875 8.332031 L 32.8125 8.332031 C 37.71875 8.332031 41.667969 12.277344 41.667969 17.1875 L 41.667969 32.8125 C 41.667969 37.71875 37.71875 41.667969 32.8125 41.667969 L 17.1875 41.667969 C 12.277344 41.667969 8.332031 37.71875 8.332031 32.8125 L 8.332031 17.1875 C 8.332031 12.277344 12.277344 8.332031 17.1875 8.332031 Z M 35.417969 12.5 C 34.265625 12.5 33.332031 13.433594 33.332031 14.582031 C 33.332031 15.734375 34.265625 16.667969 35.417969 16.667969 C 36.566406 16.667969 37.5 15.734375 37.5 14.582031 C 37.5 13.433594 36.566406 12.5 35.417969 12.5 Z M 25 14.582031 C 19.265625 14.582031 14.582031 19.265625 14.582031 25 C 14.582031 30.734375 19.265625 35.417969 25 35.417969 C 30.734375 35.417969 35.417969 30.734375 35.417969 25 C 35.417969 19.265625 30.734375 14.582031 25 14.582031 Z M 25 17.707031 C 29.046875 17.707031 32.292969 20.953125 32.292969 25 C 32.292969 29.046875 29.046875 32.292969 25 32.292969 C 20.953125 32.292969 17.707031 29.046875 17.707031 25 C 17.707031 20.953125 20.953125 17.707031 25 17.707031 Z M 25 17.707031 "/>
</g>
</svg>
