<svg width="190" height="190" viewBox="0 0 190 190" fill="none" xmlns="http://www.w3.org/2000/svg">
<path fill-rule="evenodd" clip-rule="evenodd" d="M92.15 8.92999C92.15 9.03449 91.9363 9.11999 91.675 9.11999C91.4138 9.11999 91.2 9.20549 91.2 9.30999C91.2 9.41449 91.029 9.49999 90.82 9.49999C90.611 9.49999 90.44 9.58549 90.44 9.68999C90.44 9.79449 90.3103 9.87999 90.1522 9.87999C89.8339 9.87999 87.02 12.6089 87.02 12.9171C87.02 13.0231 86.9345 13.11 86.83 13.11C86.7255 13.11 86.64 13.2758 86.64 13.4786C86.64 13.6814 86.5545 13.9004 86.45 13.965C86.3455 14.0296 86.26 14.2913 86.26 14.5464C86.26 14.8015 86.1745 15.01 86.07 15.01C85.9522 15.01 85.88 16.055 85.88 17.765C85.88 19.475 85.9522 20.52 86.07 20.52C86.1745 20.52 86.26 20.7765 86.26 21.09C86.26 21.4035 86.3455 21.66 86.45 21.66C86.5545 21.66 86.64 21.831 86.64 22.04C86.64 22.249 86.7255 22.42 86.83 22.42C86.9345 22.42 87.02 22.5416 87.02 22.6903C87.02 23.0465 89.5247 25.5749 90.0396 25.7383C90.26 25.8086 90.44 25.9454 90.44 26.0428C90.44 26.1402 90.611 26.22 90.82 26.22C91.029 26.22 91.2 26.2903 91.2 26.3763C91.2 26.5363 92.5148 26.6233 94.9525 26.6247C97.1826 26.6256 98.8 26.5154 98.8 26.3625C98.8 26.2841 98.971 26.22 99.18 26.22C99.389 26.22 99.56 26.1345 99.56 26.03C99.56 25.9255 99.684 25.84 99.836 25.84C100.195 25.84 102.98 23.0551 102.98 22.696C102.98 22.544 103.066 22.42 103.17 22.42C103.275 22.42 103.36 22.2542 103.36 22.0514C103.36 21.8486 103.446 21.6296 103.55 21.565C103.655 21.5004 103.74 21.2387 103.74 20.9836C103.74 20.7285 103.826 20.52 103.93 20.52C104.048 20.52 104.12 19.475 104.12 17.765C104.12 16.055 104.048 15.01 103.93 15.01C103.826 15.01 103.74 14.8471 103.74 14.648C103.74 13.6653 100.65 9.87999 99.8479 9.87999C99.6897 9.87999 99.56 9.79449 99.56 9.68999C99.56 9.58549 99.389 9.49999 99.18 9.49999C98.971 9.49999 98.8 9.41449 98.8 9.30999C98.8 9.20549 98.5863 9.11999 98.325 9.11999C98.0638 9.11999 97.85 9.03449 97.85 8.92999C97.85 8.81172 96.7732 8.73999 95 8.73999C93.2268 8.73999 92.15 8.81172 92.15 8.92999ZM50.73 17.86C50.73 17.9645 50.4735 18.05 50.16 18.05C49.8465 18.05 49.59 18.1355 49.59 18.24C49.59 18.3445 49.419 18.43 49.21 18.43C49.001 18.43 48.83 18.5155 48.83 18.62C48.83 18.7245 48.6989 18.81 48.5388 18.81C48.3783 18.81 47.9593 19.0879 47.6078 19.4275C47.2559 19.7671 46.8037 20.1732 46.6027 20.33C46.0988 20.7233 45.03 22.3283 45.03 22.6917C45.03 22.8556 44.9445 22.99 44.84 22.99C44.7355 22.99 44.65 23.1985 44.65 23.4536C44.65 23.7087 44.5645 23.9704 44.46 24.035C44.233 24.1751 44.1973 29.1925 44.4225 29.3317C44.5061 29.3835 44.6928 29.859 44.8367 30.3881C44.9806 30.9173 45.163 31.35 45.2414 31.35C45.3202 31.35 45.4357 31.5115 45.4984 31.7086C45.7216 32.4121 47.8411 34.3762 49.0499 34.9994C51.0354 36.0235 56.7696 36.0534 57.2304 35.0417C57.3463 34.788 57.5353 34.58 57.6508 34.58C58.1063 34.58 60.1721 32.6695 60.8 31.6678C61.1658 31.084 61.6146 30.5539 61.7975 30.4902C61.9913 30.4228 62.13 30.1815 62.13 29.9122C62.13 29.658 62.2155 29.45 62.32 29.45C62.4378 29.45 62.51 28.405 62.51 26.695C62.51 24.985 62.4378 23.94 62.32 23.94C62.2155 23.94 62.13 23.6835 62.13 23.37C62.13 23.0565 62.0445 22.8 61.94 22.8C61.8355 22.8 61.75 22.629 61.75 22.42C61.75 22.211 61.6645 22.04 61.56 22.04C61.4555 22.04 61.37 21.9117 61.37 21.755C61.37 21.5982 61.2845 21.47 61.18 21.47C61.0755 21.47 60.99 21.3745 60.99 21.2577C60.99 21.0396 59.859 19.9585 59.6253 19.9528C59.5541 19.9514 59.4415 19.779 59.375 19.57C59.3085 19.361 59.1318 19.19 58.9822 19.19C58.8326 19.19 58.71 19.1045 58.71 19C58.71 18.8955 58.5818 18.81 58.425 18.81C58.2683 18.81 58.14 18.7245 58.14 18.62C58.14 18.5155 57.969 18.43 57.76 18.43C57.551 18.43 57.38 18.3445 57.38 18.24C57.38 18.1355 57.1235 18.05 56.81 18.05C56.4965 18.05 56.24 17.9645 56.24 17.86C56.24 17.7422 55.195 17.67 53.485 17.67C51.775 17.67 50.73 17.7422 50.73 17.86ZM133.76 17.86C133.76 17.9645 133.498 18.05 133.179 18.05C132.84 18.05 132.647 18.1293 132.715 18.24C132.782 18.3478 132.622 18.43 132.346 18.43C132.079 18.43 131.86 18.5155 131.86 18.62C131.86 18.7245 131.772 18.81 131.665 18.81C131.299 18.81 128.63 21.4201 128.63 21.7778C128.63 21.9222 128.545 22.04 128.44 22.04C128.336 22.04 128.25 22.211 128.25 22.42C128.25 22.629 128.165 22.8 128.06 22.8C127.956 22.8 127.87 23.0565 127.87 23.37C127.87 23.6835 127.785 23.94 127.68 23.94C127.562 23.94 127.49 24.985 127.49 26.695C127.49 28.405 127.562 29.45 127.68 29.45C127.785 29.45 127.87 29.6637 127.87 29.925C127.87 30.1862 127.953 30.4 128.054 30.4C128.155 30.4 128.599 30.8916 129.04 31.4925C129.984 32.7774 131.371 34.1064 132.073 34.3985C132.347 34.5125 132.662 34.807 132.774 35.0526C133.228 36.0473 138.985 36.0097 140.948 34.9994C142.176 34.3672 144.27 32.4387 144.494 31.7333C144.561 31.5224 144.68 31.35 144.759 31.35C144.837 31.35 145.019 30.9173 145.163 30.3881C145.307 29.859 145.494 29.3835 145.578 29.3317C145.803 29.1925 145.767 24.1751 145.54 24.035C145.436 23.9704 145.35 23.7543 145.35 23.5548C145.35 22.9567 144.088 20.8753 143.394 20.33C143.195 20.1732 142.744 19.7671 142.392 19.4275C142.041 19.0879 141.622 18.81 141.461 18.81C141.301 18.81 141.17 18.7245 141.17 18.62C141.17 18.5155 140.999 18.43 140.79 18.43C140.581 18.43 140.41 18.3445 140.41 18.24C140.41 18.1355 140.154 18.05 139.84 18.05C139.527 18.05 139.27 17.9645 139.27 17.86C139.27 17.7422 138.225 17.67 136.515 17.67C134.805 17.67 133.76 17.7422 133.76 17.86ZM94.5725 44.5939C94.8076 44.6395 95.1924 44.6395 95.4275 44.5939C95.6626 44.5488 95.4703 44.5118 95 44.5118C94.5298 44.5118 94.3374 44.5488 94.5725 44.5939ZM20.995 71.25C20.9304 71.3545 20.6687 71.44 20.4136 71.44C20.1585 71.44 19.95 71.5255 19.95 71.63C19.95 71.7345 19.779 71.82 19.57 71.82C19.361 71.82 19.19 71.9055 19.19 72.01C19.19 72.1145 19.0603 72.2 18.9022 72.2C18.5264 72.2 15.77 74.9564 15.77 75.3321C15.77 75.4903 15.694 75.62 15.6009 75.62C15.5078 75.62 15.3183 76.0047 15.1796 76.475C15.0409 76.9452 14.8604 77.33 14.7787 77.33C14.697 77.33 14.63 78.5697 14.63 80.085C14.63 81.795 14.7022 82.84 14.82 82.84C14.9245 82.84 15.01 83.0965 15.01 83.41C15.01 83.7235 15.0955 83.98 15.2 83.98C15.3045 83.98 15.39 84.151 15.39 84.36C15.39 84.569 15.4755 84.74 15.58 84.74C15.6845 84.74 15.77 84.8616 15.77 85.0103C15.77 85.4278 18.3018 87.8921 19.1235 88.2745C19.5258 88.4621 19.8978 88.6711 19.95 88.7395C20.4288 89.3646 27.55 89.3356 27.55 88.7086C27.55 88.616 27.721 88.54 27.93 88.54C28.139 88.54 28.31 88.4545 28.31 88.35C28.31 88.2455 28.434 88.16 28.586 88.16C28.9451 88.16 31.73 85.3751 31.73 85.016C31.73 84.864 31.8155 84.74 31.92 84.74C32.0245 84.74 32.11 84.569 32.11 84.36C32.11 84.151 32.1851 83.98 32.2772 83.98C32.4544 83.98 32.509 83.1046 32.5138 80.18C32.5185 77.2245 32.3019 75.62 31.8977 75.62C31.8055 75.62 31.73 75.4903 31.73 75.3321C31.73 74.9564 28.9736 72.2 28.5979 72.2C28.4397 72.2 28.31 72.1145 28.31 72.01C28.31 71.9055 28.139 71.82 27.93 71.82C27.721 71.82 27.55 71.7345 27.55 71.63C27.55 71.5255 27.3415 71.44 27.0864 71.44C26.8313 71.44 26.5696 71.3545 26.505 71.25C26.4357 71.1379 25.3033 71.06 23.75 71.06C22.1968 71.06 21.0644 71.1379 20.995 71.25ZM163.495 71.25C163.43 71.3545 163.169 71.44 162.914 71.44C162.659 71.44 162.45 71.5255 162.45 71.63C162.45 71.7345 162.279 71.82 162.07 71.82C161.861 71.82 161.69 71.9055 161.69 72.01C161.69 72.1145 161.56 72.2 161.402 72.2C161.026 72.2 158.27 74.9564 158.27 75.3321C158.27 75.4903 158.194 75.62 158.1 75.62C157.721 75.62 157.46 77.587 157.482 80.275C157.506 83.1183 157.563 83.98 157.727 83.98C157.816 83.98 157.89 84.151 157.89 84.36C157.89 84.569 157.976 84.74 158.08 84.74C158.185 84.74 158.27 84.8616 158.27 85.0103C158.27 85.4278 160.802 87.8921 161.624 88.2745C162.026 88.4621 162.398 88.6711 162.45 88.7395C162.929 89.3646 170.05 89.3356 170.05 88.7086C170.05 88.616 170.221 88.54 170.43 88.54C170.639 88.54 170.81 88.4545 170.81 88.35C170.81 88.2455 170.934 88.16 171.086 88.16C171.445 88.16 174.23 85.3751 174.23 85.016C174.23 84.864 174.316 84.74 174.42 84.74C174.525 84.74 174.61 84.569 174.61 84.36C174.61 84.151 174.696 83.98 174.8 83.98C174.905 83.98 174.99 83.7715 174.99 83.5164C174.99 83.2613 175.076 82.9996 175.18 82.935C175.293 82.8656 175.37 81.6981 175.37 80.0736C175.37 78.3712 175.298 77.33 175.18 77.33C175.076 77.33 174.99 77.1761 174.99 76.988C174.99 76.5633 174.565 75.6233 174.373 75.6214C174.294 75.6205 174.23 75.4903 174.23 75.3321C174.23 74.9564 171.474 72.2 171.098 72.2C170.94 72.2 170.81 72.1145 170.81 72.01C170.81 71.9055 170.639 71.82 170.43 71.82C170.221 71.82 170.05 71.7345 170.05 71.63C170.05 71.5255 169.841 71.44 169.586 71.44C169.331 71.44 169.07 71.3545 169.005 71.25C168.936 71.1379 167.803 71.06 166.25 71.06C164.697 71.06 163.564 71.1379 163.495 71.25ZM20.9998 100.882C20.9328 100.991 20.6687 101.08 20.4136 101.08C20.1585 101.08 19.95 101.165 19.95 101.27C19.95 101.374 19.779 101.46 19.57 101.46C19.361 101.46 19.19 101.545 19.19 101.65C19.19 101.754 19.0703 101.84 18.9245 101.84C18.5554 101.84 15.77 104.596 15.77 104.962C15.77 105.126 15.6845 105.26 15.58 105.26C15.4755 105.26 15.39 105.431 15.39 105.64C15.39 105.849 15.3045 106.02 15.2 106.02C15.0955 106.02 15.01 106.276 15.01 106.59C15.01 106.903 14.9245 107.16 14.82 107.16C14.7022 107.16 14.63 108.205 14.63 109.915C14.63 111.625 14.7022 112.67 14.82 112.67C14.9245 112.67 15.01 112.833 15.01 113.032C15.01 114.015 18.0999 117.8 18.9022 117.8C19.0603 117.8 19.19 117.885 19.19 117.99C19.19 118.094 19.361 118.18 19.57 118.18C19.779 118.18 19.95 118.265 19.95 118.37C19.95 118.474 20.1585 118.56 20.4136 118.56C20.6687 118.56 20.9304 118.645 20.995 118.75C21.0639 118.862 22.1697 118.94 23.6688 118.94C25.0748 118.94 26.3948 118.854 26.6024 118.75C26.81 118.645 27.1501 118.474 27.3576 118.37C27.5652 118.265 27.8645 118.18 28.0226 118.18C28.1808 118.18 28.31 118.094 28.31 117.99C28.31 117.885 28.4397 117.8 28.5979 117.8C29.6604 117.8 32.3475 114.158 32.4534 112.575C32.6145 110.163 32.4957 106.343 32.2525 106.099C32.1741 106.021 32.11 105.8 32.11 105.608C32.11 105.417 32.0245 105.26 31.92 105.26C31.8155 105.26 31.73 105.14 31.73 104.994C31.73 104.625 28.9736 101.84 28.6078 101.84C28.444 101.84 28.31 101.754 28.31 101.65C28.31 101.545 28.139 101.46 27.93 101.46C27.721 101.46 27.55 101.374 27.55 101.27C27.55 101.165 27.3415 101.08 27.0864 101.08C26.8313 101.08 26.5748 101.003 26.5164 100.909C26.3639 100.662 21.1518 100.636 20.9998 100.882ZM163.5 100.882C163.433 100.991 163.169 101.08 162.914 101.08C162.659 101.08 162.45 101.165 162.45 101.27C162.45 101.374 162.279 101.46 162.07 101.46C161.861 101.46 161.69 101.545 161.69 101.65C161.69 101.754 161.57 101.84 161.424 101.84C161.055 101.84 158.27 104.596 158.27 104.962C158.27 105.126 158.185 105.26 158.08 105.26C157.976 105.26 157.89 105.431 157.89 105.64C157.89 105.849 157.816 106.02 157.727 106.02C157.502 106.02 157.392 110.015 157.55 112.385C157.669 114.159 160.259 117.8 161.402 117.8C161.56 117.8 161.69 117.885 161.69 117.99C161.69 118.094 161.861 118.18 162.07 118.18C162.279 118.18 162.45 118.265 162.45 118.37C162.45 118.474 162.659 118.56 162.914 118.56C163.169 118.56 163.43 118.645 163.495 118.75C163.564 118.862 164.67 118.94 166.169 118.94C167.575 118.94 168.895 118.854 169.102 118.75C169.31 118.645 169.65 118.474 169.858 118.37C170.065 118.265 170.364 118.18 170.523 118.18C170.681 118.18 170.81 118.094 170.81 117.99C170.81 117.885 170.94 117.8 171.098 117.8C171.9 117.8 174.99 114.015 174.99 113.032C174.99 112.833 175.076 112.67 175.18 112.67C175.298 112.67 175.37 111.625 175.37 109.915C175.37 108.205 175.298 107.16 175.18 107.16C175.076 107.16 174.99 106.951 174.99 106.696C174.99 106.441 174.905 106.18 174.8 106.115C174.696 106.05 174.61 105.831 174.61 105.629C174.61 105.426 174.525 105.26 174.42 105.26C174.316 105.26 174.23 105.14 174.23 104.994C174.23 104.625 171.474 101.84 171.108 101.84C170.944 101.84 170.81 101.754 170.81 101.65C170.81 101.545 170.639 101.46 170.43 101.46C170.221 101.46 170.05 101.374 170.05 101.27C170.05 101.165 169.841 101.08 169.586 101.08C169.331 101.08 169.075 101.003 169.016 100.909C168.864 100.662 163.652 100.636 163.5 100.882ZM94.0087 145.49C94.5611 145.529 95.4161 145.529 95.9087 145.489C96.4017 145.45 95.95 145.419 94.905 145.419C93.86 145.42 93.4567 145.452 94.0087 145.49ZM50.2887 154.473C48.6752 154.958 45.41 157.586 45.41 158.401C45.41 158.538 45.3245 158.65 45.22 158.65C45.1155 158.65 45.03 158.816 45.03 159.019C45.03 159.221 44.9445 159.44 44.84 159.505C44.7355 159.57 44.65 159.826 44.65 160.075C44.65 160.324 44.5645 160.58 44.46 160.645C44.3489 160.714 44.27 161.815 44.27 163.305C44.27 164.795 44.3489 165.896 44.46 165.965C44.5645 166.03 44.65 166.246 44.65 166.445C44.65 167.105 45.8717 169.045 46.8279 169.903C47.1452 170.189 47.5945 170.595 47.8259 170.806C48.0572 171.017 48.3778 171.19 48.5384 171.19C48.6989 171.19 48.83 171.275 48.83 171.38C48.83 171.484 49.001 171.57 49.21 171.57C49.419 171.57 49.59 171.655 49.59 171.76C49.59 171.864 49.8465 171.95 50.16 171.95C50.4735 171.95 50.73 172.035 50.73 172.14C50.73 172.258 51.7394 172.33 53.3786 172.33C54.9399 172.33 56.0757 172.252 56.145 172.14C56.2096 172.035 56.5141 171.95 56.8214 171.95C57.1287 171.95 57.38 171.864 57.38 171.76C57.38 171.655 57.551 171.57 57.76 171.57C57.969 171.57 58.14 171.484 58.14 171.38C58.14 171.275 58.2683 171.19 58.425 171.19C58.5818 171.19 58.71 171.104 58.71 171C58.71 170.895 58.7922 170.81 58.8924 170.81C59.1408 170.81 60.99 168.974 60.99 168.728C60.99 168.619 61.0755 168.53 61.18 168.53C61.2845 168.53 61.37 168.402 61.37 168.245C61.37 168.088 61.4555 167.96 61.56 167.96C61.6645 167.96 61.75 167.789 61.75 167.58C61.75 167.371 61.8355 167.2 61.94 167.2C62.0445 167.2 62.13 166.943 62.13 166.63C62.13 166.316 62.2155 166.06 62.32 166.06C62.4378 166.06 62.51 165.015 62.51 163.305C62.51 161.595 62.4378 160.55 62.32 160.55C62.2155 160.55 62.13 160.342 62.13 160.088C62.13 159.812 61.9942 159.582 61.7937 159.519C61.6089 159.46 61.2883 159.095 61.0812 158.707C60.6038 157.813 58.6863 155.915 57.9519 155.611C57.6441 155.483 57.3411 155.217 57.2784 155.02C57.2157 154.822 57.0846 154.65 56.9872 154.636C56.8898 154.623 56.7316 154.602 56.6357 154.589C56.5402 154.576 56.3977 154.501 56.3193 154.422C56.1255 154.229 50.959 154.272 50.2887 154.473ZM133.697 154.407C133.609 154.494 133.46 154.576 133.364 154.589C133.268 154.602 133.11 154.623 133.013 154.636C132.915 154.65 132.788 154.812 132.729 154.996C132.67 155.181 132.322 155.494 131.955 155.692C131.124 156.139 129.338 157.935 128.883 158.78C128.696 159.128 128.391 159.46 128.206 159.519C128.006 159.582 127.87 159.812 127.87 160.088C127.87 160.342 127.785 160.55 127.68 160.55C127.562 160.55 127.49 161.595 127.49 163.305C127.49 165.015 127.562 166.06 127.68 166.06C127.785 166.06 127.87 166.316 127.87 166.63C127.87 166.943 127.956 167.2 128.06 167.2C128.165 167.2 128.25 167.371 128.25 167.58C128.25 167.789 128.336 167.96 128.44 167.96C128.545 167.96 128.63 168.088 128.63 168.245C128.63 168.402 128.716 168.53 128.82 168.53C128.925 168.53 129.01 168.622 129.01 168.735C129.01 168.915 129.417 169.33 131.046 170.808C131.277 171.018 131.555 171.19 131.663 171.19C131.772 171.19 131.86 171.275 131.86 171.38C131.86 171.484 132.026 171.57 132.229 171.57C132.431 171.57 132.65 171.655 132.715 171.76C132.78 171.864 133.041 171.95 133.296 171.95C133.551 171.95 133.76 172.035 133.76 172.14C133.76 172.258 134.805 172.33 136.515 172.33C138.225 172.33 139.27 172.258 139.27 172.14C139.27 172.035 139.527 171.95 139.84 171.95C140.154 171.95 140.41 171.864 140.41 171.76C140.41 171.655 140.581 171.57 140.79 171.57C140.999 171.57 141.17 171.484 141.17 171.38C141.17 171.275 141.301 171.19 141.462 171.19C141.746 171.19 141.993 170.998 143.345 169.724C144.098 169.015 145.35 166.965 145.35 166.441C145.35 166.244 145.436 166.03 145.54 165.965C145.651 165.896 145.73 164.795 145.73 163.305C145.73 161.815 145.651 160.714 145.54 160.645C145.436 160.58 145.35 160.324 145.35 160.075C145.35 159.826 145.265 159.57 145.16 159.505C145.056 159.44 144.97 159.221 144.97 159.019C144.97 158.816 144.89 158.65 144.793 158.65C144.695 158.65 144.561 158.478 144.494 158.267C144.343 157.789 142.205 155.589 142.046 155.747C141.982 155.811 141.93 155.778 141.93 155.673C141.93 154.765 134.483 153.62 133.697 154.407ZM93.1428 163.473C92.5913 163.613 92.0944 163.654 92.0389 163.564C91.9139 163.362 91.2 163.345 91.2 163.545C91.2 163.625 90.8575 163.839 90.4386 164.02C89.6102 164.379 87.02 166.871 87.02 167.31C87.02 167.458 86.9345 167.58 86.83 167.58C86.7255 167.58 86.64 167.751 86.64 167.96C86.64 168.169 86.5545 168.34 86.45 168.34C86.3455 168.34 86.26 168.596 86.26 168.91C86.26 169.223 86.1745 169.48 86.07 169.48C85.9522 169.48 85.88 170.525 85.88 172.235C85.88 173.945 85.9522 174.99 86.07 174.99C86.1745 174.99 86.26 175.199 86.26 175.454C86.26 175.709 86.3455 175.97 86.45 176.035C86.5545 176.1 86.64 176.319 86.64 176.521C86.64 176.724 86.7255 176.89 86.83 176.89C86.9345 176.89 87.02 176.984 87.02 177.099C87.02 177.413 89.8282 180.12 90.155 180.12C90.3118 180.12 90.44 180.205 90.44 180.31C90.44 180.414 90.611 180.5 90.82 180.5C91.029 180.5 91.2 180.585 91.2 180.69C91.2 180.794 91.4085 180.88 91.6636 180.88C91.9187 180.88 92.1804 180.965 92.245 181.07C92.3144 181.182 93.4468 181.26 95 181.26C96.5533 181.26 97.6857 181.182 97.755 181.07C97.8196 180.965 98.0813 180.88 98.3364 180.88C98.5915 180.88 98.8 180.794 98.8 180.69C98.8 180.585 98.971 180.5 99.18 180.5C99.389 180.5 99.56 180.414 99.56 180.31C99.56 180.205 99.6883 180.12 99.845 180.12C100.229 180.12 102.98 177.385 102.98 177.004C102.98 176.836 103.044 176.7 103.123 176.699C103.315 176.697 103.74 175.757 103.74 175.332C103.74 175.144 103.826 174.99 103.93 174.99C104.048 174.99 104.12 173.945 104.12 172.235C104.12 170.525 104.048 169.48 103.93 169.48C103.826 169.48 103.74 169.223 103.74 168.91C103.74 168.596 103.655 168.34 103.55 168.34C103.446 168.34 103.36 168.169 103.36 167.96C103.36 167.751 103.275 167.58 103.17 167.58C103.066 167.58 102.98 167.456 102.98 167.304C102.98 167.152 102.334 166.383 101.546 165.594C100.757 164.806 99.9875 164.16 99.836 164.16C99.684 164.16 99.56 164.074 99.56 163.97C99.56 163.865 99.389 163.78 99.18 163.78C98.971 163.78 98.8 163.709 98.8 163.622C98.8 163.535 98.3511 163.465 97.8025 163.466C97.2539 163.466 96.2065 163.41 95.475 163.343C94.5977 163.26 93.804 163.305 93.1428 163.473Z" fill="#2CD1FF"/>
<path fill-rule="evenodd" clip-rule="evenodd" d="M91.8669 26.6222C91.8113 26.7666 91.7881 30.9034 91.8156 35.8149L91.865 44.7449L92.53 44.7002C93.3893 44.6423 96.6107 44.6423 97.47 44.7002L98.135 44.7449L98.1844 35.5508L98.2338 26.3567L97.2344 26.513C95.9405 26.7158 94.0025 26.7182 92.8663 26.5177C92.1662 26.3942 91.9453 26.4175 91.8669 26.6222ZM61.5633 30.6374C61.4522 30.768 61.0275 31.3513 60.6195 31.9337C59.9175 32.935 58.0536 34.5799 57.6204 34.5799C57.4517 34.5799 57.19 34.9931 57.19 35.2596C57.19 35.3033 58.9855 37.1549 61.18 39.375L65.17 43.4111V50.6938C65.17 56.2689 65.2256 58.0321 65.4075 58.2116C65.9984 58.7949 66.3765 58.6966 68.8204 57.3219C69.2683 57.0697 69.977 56.6707 70.395 56.4346C70.813 56.199 71.2177 55.9088 71.2947 55.7905C71.516 55.4485 71.4723 39.8999 71.25 39.8999C71.1455 39.8999 71.06 39.7721 71.06 39.6158C71.06 39.4591 70.2691 38.5642 69.3025 37.6261C68.3359 36.6884 67.4795 35.8543 67.3997 35.7731C67.3194 35.6914 66.1043 34.4493 64.6998 33.0124C62.1029 30.3567 61.9196 30.218 61.5633 30.6374ZM125.925 32.3654C124.852 33.4465 123.623 34.7077 123.191 35.1679C122.76 35.6282 121.631 36.7316 120.682 37.6199C119.733 38.5081 118.953 39.3845 118.949 39.5674C118.944 39.7503 118.855 39.8999 118.75 39.8999C118.528 39.8999 118.484 55.458 118.705 55.7739C119.052 56.2689 123.712 58.6918 124.067 58.5617C124.824 58.2848 124.83 58.2211 124.83 50.6947V43.4125L128.806 39.3935C130.993 37.1834 132.839 35.4311 132.908 35.5C132.977 35.5688 132.93 35.3955 132.802 35.1152C132.675 34.835 132.347 34.5124 132.073 34.3984C131.371 34.1063 129.984 32.7773 129.04 31.4924C128.025 30.1097 128.215 30.0569 125.925 32.3654ZM14.63 59.3749V65.5499H20.805H26.98V59.3749V53.1999H20.805H14.63V59.3749ZM32.366 77.2415C32.3048 77.4016 32.3599 77.9094 32.4886 78.3697C32.7166 79.1838 32.6658 81.2315 32.3836 82.6043L32.2563 83.2237L41.3507 83.1743L50.445 83.1249L50.4996 80.4649C50.5296 79.0019 50.5068 77.6125 50.4483 77.3774L50.3429 76.9499H41.4105C33.5564 76.9499 32.4644 76.985 32.366 77.2415ZM139.552 77.3755C139.494 77.6116 139.47 79.0019 139.5 80.4649L139.555 83.1249L148.653 83.1743L157.75 83.2237L157.594 82.4143C157.449 81.669 157.429 79.3073 157.553 77.7099L157.605 77.0449L148.632 76.9955L139.658 76.9461L139.552 77.3755ZM32.4093 107.491C32.5594 108.163 32.5836 110.815 32.4539 112.29L32.395 112.955L41.3682 113.004L50.3419 113.054L50.4479 112.624C50.5063 112.388 50.5296 110.998 50.4996 109.535L50.445 106.875L41.3473 106.825L32.2497 106.776L32.4093 107.491ZM139.587 106.907C139.428 107.065 139.418 112.34 139.575 112.749C139.678 113.018 140.662 113.05 148.721 113.05H157.752L157.592 112.147C157.393 111.025 157.396 108.661 157.598 107.587L157.75 106.78H148.732C143.772 106.78 139.656 106.837 139.587 106.907ZM65.4075 131.753C65.2265 131.967 65.17 133.766 65.17 139.31V146.587L61.18 150.62C58.9855 152.839 57.1914 154.719 57.1929 154.8C57.1986 155.083 57.4821 155.37 58.045 155.663C58.8568 156.084 60.2652 157.459 60.9102 158.46C61.4612 159.314 61.7229 159.591 61.9837 159.597C62.2397 159.602 71.06 150.629 71.06 150.363C71.06 150.218 71.1455 150.1 71.25 150.1C71.3735 150.1 71.44 147.349 71.44 142.228V134.356L70.8881 133.963C70.5845 133.747 70.2896 133.57 70.2321 133.57C70.1746 133.57 69.3752 133.135 68.4561 132.604C66.6264 131.546 65.7813 131.31 65.4075 131.753ZM123.02 131.736C122.814 131.877 121.961 132.361 121.125 132.812C120.289 133.264 119.434 133.726 119.225 133.839C119.016 133.952 118.782 134.13 118.705 134.235C118.484 134.537 118.528 150.1 118.75 150.1C118.855 150.1 118.944 150.25 118.949 150.432C118.953 150.615 119.733 151.492 120.682 152.38C121.631 153.268 122.76 154.372 123.191 154.832C124.867 156.622 127.881 159.6 128.015 159.597C128.269 159.592 128.544 159.323 128.922 158.714C129.483 157.811 130.853 156.412 131.738 155.838C132.535 155.322 132.802 155.063 132.807 154.8C132.809 154.719 131.015 152.839 128.82 150.62L124.83 146.587V139.305C124.83 131.458 124.833 131.48 123.841 131.48C123.595 131.48 123.226 131.595 123.02 131.736ZM91.9068 145.276C91.6836 145.5 91.7406 163.294 91.9652 163.519C92.0987 163.653 92.5837 163.623 93.5014 163.426C94.6124 163.188 95.0689 163.177 96.16 163.364C98.5065 163.767 98.2409 164.939 98.1844 154.422L98.135 145.255L97.565 145.319C96.3457 145.455 92.9803 145.437 92.5243 145.292C92.2597 145.208 91.9819 145.201 91.9068 145.276ZM163.02 154.375V160.55H169.195H175.37V154.375V148.2H169.195H163.02V154.375Z" fill="#4E565E"/>
<path fill-rule="evenodd" clip-rule="evenodd" d="M88.9076 45.846C87.608 46.5034 86.1835 47.2729 85.7413 47.556C85.2991 47.8386 84.8502 48.0699 84.7438 48.0699C84.6374 48.0699 84.55 48.1554 84.55 48.2599C84.55 48.3644 84.379 48.4499 84.17 48.4499C83.961 48.4499 83.79 48.5354 83.79 48.6399C83.79 48.7444 83.6579 48.8299 83.4969 48.8299C83.3359 48.8299 83.0205 49.0009 82.7963 49.2099C82.5721 49.4189 82.2762 49.5899 82.1394 49.5899C82.0021 49.5899 81.89 49.6754 81.89 49.7799C81.89 49.8844 81.719 49.9699 81.51 49.9699C81.301 49.9699 81.13 50.0554 81.13 50.1599C81.13 50.2644 80.9661 50.3499 80.7657 50.3499C80.5657 50.3499 80.3733 50.414 80.3382 50.4924C80.2764 50.6321 79.3202 51.1721 77.805 51.9231C77.387 52.1302 77.0022 52.3606 76.95 52.4342C76.8977 52.5083 76.4916 52.7273 76.0475 52.9211C75.6034 53.1144 75.24 53.3419 75.24 53.4265C75.24 53.511 75.069 53.5799 74.86 53.5799C74.651 53.5799 74.48 53.6445 74.48 53.7229C74.48 53.8017 73.8373 54.1651 73.0521 54.5304C72.0499 54.9968 71.5915 55.3203 71.5136 55.6153C71.4006 56.0433 70.8629 56.4071 68.495 57.6597C67.7635 58.0463 67.0581 58.4515 66.927 58.5603C66.7959 58.6686 66.4325 58.7061 66.1195 58.6434C65.7984 58.5793 65.55 58.6102 65.55 58.7147C65.55 58.8168 65.3647 58.8999 65.1382 58.8999C64.9121 58.8999 64.7852 58.9588 64.857 59.0305C64.9581 59.1317 63.7749 59.8186 63.27 59.9516C62.9893 60.0257 62.1333 60.4707 61.465 60.8906C61.047 61.1528 60.4912 61.4739 60.23 61.6041C59.9687 61.7342 59.6419 61.9485 59.5037 62.08C59.366 62.2121 59.1522 62.3223 59.0287 62.3256C58.9057 62.3289 58.9608 62.422 59.1517 62.5332C59.4857 62.727 59.4937 63.5768 59.3674 85.185C59.2197 110.443 59.0838 108.04 60.7468 109.635C61.2465 110.114 62.0673 110.994 62.5717 111.59C63.5612 112.761 64.7767 113.649 67.165 114.946C68.001 115.399 68.9842 115.94 69.35 116.147C70.5897 116.849 71.4761 117.337 74.7175 119.103C76.503 120.077 77.9418 120.871 81.13 122.645C82.8542 123.604 84.8207 124.689 85.5 125.056C86.1792 125.422 87.1411 125.949 87.6375 126.226C88.1339 126.503 88.9247 126.944 89.395 127.205C89.8652 127.466 90.6134 127.883 91.0575 128.132C96.4354 131.14 99.4569 132.698 100.415 132.955C100.833 133.068 101.527 133.252 101.957 133.365C103.458 133.758 105.481 133.581 107.827 132.851C108.613 132.606 109.925 131.931 113.81 129.775C115.639 128.76 117.648 127.648 118.275 127.303C119.653 126.547 120.71 125.96 121.6 125.459C121.966 125.253 122.949 124.713 123.785 124.258C124.621 123.804 125.715 123.191 126.216 122.896C126.717 122.601 127.158 122.36 127.197 122.36C127.236 122.36 128.098 121.89 129.114 121.315C130.128 120.74 130.984 120.27 131.014 120.27C131.045 120.27 131.81 119.842 132.715 119.32C133.62 118.797 134.381 118.37 134.407 118.37C134.523 118.37 138.624 116.043 138.785 115.886C138.885 115.789 139.106 115.71 139.277 115.71C139.628 115.71 139.789 71.7382 139.438 71.5216C139.346 71.4641 139.27 71.2138 139.27 70.9649C139.27 70.716 139.184 70.4595 139.08 70.3949C138.975 70.3303 138.89 70.1284 138.89 69.9465C138.89 69.5309 138.463 68.5932 138.272 68.5913C138.194 68.5904 138.13 68.4227 138.13 68.2185C138.13 68.0142 137.912 67.6294 137.646 67.3634C137.38 67.0974 137.223 66.8799 137.296 66.8799C137.37 66.8799 136.999 66.4738 136.473 65.9774C135.199 64.7756 134.743 64.4099 134.518 64.4099C134.415 64.4099 134.33 64.3244 134.33 64.2199C134.33 64.1154 134.253 64.0299 134.159 64.0299C134.065 64.0299 133.426 63.6879 132.738 63.2699C132.05 62.8519 131.4 62.5099 131.293 62.5099C131.187 62.5099 131.1 62.4244 131.1 62.3199C131.1 62.2154 130.95 62.128 130.767 62.1256C130.585 62.1233 130.221 61.9542 129.96 61.7499C129.699 61.5457 129.378 61.3766 129.247 61.3742C129.117 61.3718 129.01 61.2844 129.01 61.1799C129.01 61.0754 128.918 60.9899 128.806 60.9899C128.694 60.9899 128.202 60.7553 127.714 60.4679C127.225 60.181 126.782 59.9345 126.73 59.9202C126.071 59.7383 125.802 59.5872 125.888 59.4485C125.946 59.3559 125.817 59.2799 125.601 59.2799C125.386 59.2799 125.21 59.1944 125.21 59.0899C125.21 58.9854 125.039 58.8999 124.83 58.8999C124.621 58.8999 124.45 58.813 124.45 58.7061C124.45 58.5992 124.255 58.5617 124.013 58.6225C123.709 58.6985 123.087 58.4667 121.97 57.8616C121.087 57.3828 119.999 56.8037 119.551 56.5743C119.096 56.3416 118.693 55.982 118.636 55.7587C118.573 55.5075 118.12 55.1536 117.411 54.8026C116.793 54.4957 116.285 54.1808 116.283 54.1024C116.281 54.024 116.116 53.9599 115.916 53.9599C115.716 53.9599 115.523 53.8958 115.488 53.8174C115.403 53.6255 114.446 53.0664 113.572 52.6988C113.181 52.5335 112.86 52.3316 112.86 52.2499C112.86 52.1682 112.63 52.0433 112.349 51.973C112.068 51.9022 111.606 51.6794 111.322 51.4771C111.038 51.2752 110.713 51.1099 110.598 51.1099C110.484 51.1099 110.39 51.0244 110.39 50.9199C110.39 50.8154 110.219 50.7299 110.01 50.7299C109.801 50.7299 109.63 50.6444 109.63 50.5399C109.63 50.4354 109.459 50.3499 109.25 50.3499C109.041 50.3499 108.87 50.2644 108.87 50.1599C108.87 50.0554 108.738 49.9699 108.577 49.9699C108.416 49.9699 108.1 49.7989 107.876 49.5899C107.652 49.3809 107.356 49.2099 107.219 49.2099C107.082 49.2099 106.97 49.1244 106.97 49.0199C106.97 48.9154 106.799 48.8299 106.59 48.8299C106.381 48.8299 106.21 48.7653 106.21 48.6865C106.21 48.6071 105.932 48.4238 105.592 48.2784C105.253 48.1336 104.821 47.8818 104.633 47.7194C104.445 47.5574 104.155 47.4044 103.987 47.3797C103.82 47.3555 103.632 47.2643 103.569 47.1774C103.506 47.0909 103.027 46.8074 102.505 46.5475C101.982 46.2877 101.526 46.0108 101.492 45.9324C101.457 45.854 101.337 45.7899 101.225 45.7899C101.113 45.7899 100.549 45.5662 99.9713 45.2931C98.7283 44.705 98.4271 44.6442 98.0191 44.8979C97.8115 45.0271 97.432 45.0176 96.842 44.8689C96.3632 44.7487 95.5344 44.6499 95 44.6499C94.4656 44.6499 93.6367 44.7487 93.1579 44.8689C92.5001 45.0347 92.2013 45.0347 91.9362 44.8689C91.4337 44.5554 91.4964 44.5354 88.9076 45.846ZM63.6281 80.549C64.2053 80.8435 65.6075 82.5886 70.5731 89.1935C73.995 93.745 76.8721 97.5169 76.9671 97.5758C77.0697 97.639 77.14 94.6622 77.14 90.2551C77.14 82.4176 77.178 82.0329 78.0458 81.0739C79.2281 79.7671 81.7228 80.0331 82.6566 81.565C83.0162 82.1545 83.0286 82.6038 83.0295 95.0194L83.03 107.864L82.6025 108.495C81.7551 109.747 79.9995 110.187 78.755 109.459C78.4158 109.261 75.7121 105.835 72.0755 100.995C68.7154 96.5232 65.8298 92.7285 65.663 92.5617C65.3856 92.2843 65.36 92.8952 65.36 99.7808C65.36 105.832 65.3073 107.429 65.0916 107.944C64.1288 110.242 61.0812 110.45 59.8723 108.299C59.2676 107.223 59.2387 82.5297 59.841 81.6158C60.6998 80.3129 62.2886 79.8654 63.6281 80.549ZM105.275 80.5675C107.277 81.5888 107.323 84.5599 105.355 85.7094C104.854 86.002 104.194 86.0438 99.8925 86.0561L95 86.0699V89.003V91.9362L99.7975 91.9955C105.941 92.0715 106.926 92.5318 106.737 95.2374C106.566 97.678 105.649 98.0399 99.6317 98.0399H95V102.812C95 107.32 94.9777 107.623 94.5977 108.299C93.4866 110.275 90.6233 110.275 89.5123 108.299C89.1138 107.59 89.11 107.464 89.11 94.9999C89.11 80.8012 89.0378 81.4975 90.6029 80.5898C91.6598 79.9771 104.081 79.9581 105.275 80.5675ZM129.025 80.5675C131.049 81.6002 131.071 84.5988 129.063 85.7155C128.618 85.9635 127.945 86.0709 126.593 86.1103L124.735 86.1649L124.64 96.9949C124.534 109.15 124.603 108.583 123.111 109.422C121.894 110.106 120.485 109.873 119.605 108.84C118.731 107.815 118.75 108.089 118.75 96.8073V86.0699H116.923C112.928 86.0699 111.212 82.4114 114.353 80.5898C115.41 79.9771 127.831 79.9581 129.025 80.5675Z" fill="#3CB64B"/>
<path fill-rule="evenodd" clip-rule="evenodd" d="M60.9321 80.6193C59.3717 81.5641 59.4729 80.5771 59.4714 94.8793C59.47 107.468 59.4738 107.59 59.8723 108.299C61.0812 110.45 64.1288 110.242 65.0916 107.944C65.3073 107.429 65.36 105.832 65.36 99.7808C65.36 92.8952 65.3857 92.2844 65.6631 92.5618C65.8298 92.7285 68.7154 96.5233 72.0756 100.995C75.7122 105.835 78.4159 109.261 78.755 109.459C79.9995 110.187 81.7551 109.747 82.6025 108.495L83.03 107.864L83.0295 95.0194C83.0286 82.6039 83.0162 82.1545 82.6567 81.5651C81.7228 80.0332 79.2281 79.7672 78.0458 81.0739C77.178 82.0329 77.14 82.4177 77.14 90.2552C77.14 94.6622 77.0697 97.6391 76.9671 97.5759C76.8721 97.517 73.995 93.745 70.5731 89.1936C63.3127 79.5363 63.0734 79.3231 60.9321 80.6193ZM90.6029 80.5899C89.0378 81.4976 89.11 80.8013 89.11 95C89.11 107.464 89.1138 107.59 89.5123 108.299C90.6234 110.275 93.4867 110.275 94.5977 108.299C94.9777 107.623 95 107.32 95 102.812V98.04H99.6317C105.649 98.04 106.566 97.678 106.737 95.2375C106.926 92.5319 105.941 92.0716 99.7975 91.9956L95 91.9362V89.0031V86.07L99.8925 86.0562C104.194 86.0438 104.854 86.002 105.355 85.7094C107.323 84.5599 107.277 81.5888 105.275 80.5676C104.081 79.9581 91.6598 79.9771 90.6029 80.5899ZM114.353 80.5899C111.212 82.4115 112.928 86.07 116.923 86.07H118.75V96.8073C118.75 108.089 118.731 107.815 119.605 108.841C120.485 109.873 121.894 110.106 123.111 109.422C124.603 108.584 124.534 109.15 124.64 96.995L124.735 86.165L126.593 86.1103C127.945 86.0709 128.618 85.9636 129.063 85.7156C131.071 84.5989 131.049 81.6002 129.025 80.5676C127.831 79.9581 115.41 79.9771 114.353 80.5899Z" fill="#F4F3F2"/>
<path fill-rule="evenodd" clip-rule="evenodd" d="M91.932 44.8879C92.0279 44.9838 92.3082 45.0304 92.5557 44.9914C92.9361 44.9316 92.9091 44.905 92.3813 44.8171C92.0042 44.7549 91.8265 44.7824 91.932 44.8879ZM97.565 44.8399L96.995 44.9848L97.5061 45.0076C97.7873 45.0199 98.0704 44.9444 98.135 44.8399C98.1996 44.7354 98.2262 44.6599 98.1939 44.6722C98.1616 44.6846 97.8785 44.7601 97.565 44.8399ZM76.1064 52.7311C75.6319 53.0897 75.8076 53.0873 76.5007 52.7258C76.7999 52.57 76.9168 52.4446 76.76 52.447C76.6033 52.4499 76.3092 52.5776 76.1064 52.7311ZM69.8725 56.7287C69.1624 57.1139 69.2056 57.2744 69.92 56.9049C70.2335 56.7429 70.49 56.5695 70.49 56.5201C70.49 56.3976 70.4696 56.4047 69.8725 56.7287ZM58.33 62.6909C58.5514 62.841 58.4768 62.8847 57.9975 62.887C57.6579 62.8885 57.38 62.9754 57.38 63.0799C57.38 63.1844 57.2465 63.2699 57.0836 63.2699C56.9207 63.2699 56.8418 63.3573 56.9079 63.4646C56.9739 63.5715 56.9577 63.638 56.8718 63.6124C56.6485 63.5449 55.48 64.094 55.48 64.2664C55.48 64.3453 55.3603 64.4099 55.2145 64.4099C54.9095 64.4099 53.01 66.2101 53.01 66.4989C53.01 66.6039 52.8818 66.6899 52.725 66.6899C52.5668 66.6899 52.44 66.859 52.44 67.0699C52.44 67.2789 52.3645 67.4499 52.2719 67.4499C52.1123 67.4499 51.8824 67.8788 51.2791 69.3024C51.1352 69.642 50.9528 69.9199 50.8735 69.9199C50.7946 69.9199 50.73 70.2191 50.73 70.5849C50.73 70.9506 50.6554 71.2499 50.5647 71.2499C50.4716 71.2499 50.3994 81.6467 50.3994 94.9999C50.3994 108.353 50.4716 118.75 50.5647 118.75C50.6554 118.75 50.73 119.049 50.73 119.415C50.73 119.781 50.8155 120.08 50.92 120.08C51.0245 120.08 51.11 120.251 51.11 120.46C51.11 120.669 51.1955 120.84 51.3 120.84C51.4045 120.84 51.49 120.989 51.49 121.171C51.49 121.811 53.3259 124.239 54.008 124.501C54.1904 124.571 54.34 124.759 54.34 124.919C54.34 125.079 54.4521 125.21 54.5894 125.21C54.7262 125.21 55.0079 125.36 55.215 125.542C55.6923 125.964 56.6157 126.532 57.0475 126.669C57.2304 126.727 57.38 126.85 57.38 126.942C57.38 127.034 57.551 127.11 57.76 127.11C57.969 127.11 58.14 127.195 58.14 127.3C58.14 127.404 58.311 127.49 58.52 127.49C58.729 127.49 58.9 127.561 58.9 127.648C58.9 127.735 59.1351 127.927 59.4225 128.075C59.7099 128.223 59.9878 128.387 60.04 128.439C60.0923 128.492 60.5625 128.747 61.085 129.005C61.6075 129.264 62.0778 129.521 62.13 129.577C62.3623 129.824 64.2067 130.72 64.4832 130.72C64.6518 130.72 64.79 130.805 64.79 130.91C64.79 131.014 64.961 131.1 65.17 131.1C65.379 131.1 65.55 131.191 65.55 131.302C65.55 131.413 65.6996 131.482 65.8825 131.455C66.2373 131.404 67.1023 131.644 67.26 131.838C67.3517 131.951 67.8134 132.206 70.1623 133.441C70.8885 133.823 71.2975 134.167 71.3707 134.459C71.4376 134.726 71.6234 134.9 71.8404 134.9C72.0385 134.9 72.2 134.985 72.2 135.09C72.2 135.194 72.371 135.28 72.58 135.28C72.789 135.28 72.96 135.365 72.96 135.47C72.96 135.574 73.0883 135.66 73.245 135.66C73.4018 135.66 73.53 135.745 73.53 135.85C73.53 135.954 73.6583 136.04 73.815 136.04C73.9718 136.04 74.1 136.125 74.1 136.23C74.1 136.334 74.2639 136.42 74.4643 136.42C74.6643 136.42 74.8567 136.484 74.8918 136.562C74.9265 136.641 75.3398 136.907 75.81 137.154C76.2803 137.401 77.0061 137.784 77.4236 138.005C77.8406 138.225 78.309 138.425 78.4648 138.448C78.6206 138.47 78.7783 138.579 78.8149 138.689C78.8514 138.8 79.0457 138.89 79.2457 138.89C79.4461 138.89 79.61 138.975 79.61 139.08C79.61 139.184 79.7383 139.27 79.895 139.27C80.0518 139.27 80.18 139.355 80.18 139.46C80.18 139.564 80.3083 139.65 80.465 139.65C80.6218 139.65 80.75 139.735 80.75 139.84C80.75 139.944 80.921 140.03 81.13 140.03C81.339 140.03 81.51 140.121 81.51 140.231C81.51 140.342 81.5884 140.384 81.6848 140.324C81.7808 140.265 81.9883 140.345 82.146 140.503C82.3037 140.661 82.5674 140.79 82.7312 140.79C82.8956 140.79 83.03 140.864 83.03 140.953C83.03 141.044 83.4148 141.321 83.885 141.571C84.3553 141.82 84.74 142.094 84.74 142.178C84.74 142.263 84.8184 142.284 84.9148 142.224C85.0108 142.165 85.2183 142.245 85.376 142.403C85.5337 142.561 85.7974 142.69 85.9612 142.69C86.1256 142.69 86.2605 142.754 86.2614 142.832C86.2624 142.911 86.4548 143.07 86.6889 143.187C88.2788 143.977 89.5945 144.706 89.6482 144.827C89.6833 144.906 89.9132 144.97 90.1598 144.97C90.4058 144.97 90.6552 145.047 90.7136 145.141C90.8499 145.362 99.18 145.356 99.18 145.136C99.18 145.044 99.351 144.97 99.56 144.97C99.769 144.97 99.94 144.884 99.94 144.78C99.94 144.675 100.051 144.59 100.187 144.59C100.537 144.59 101.457 144.143 101.459 143.972C101.46 143.894 101.636 143.83 101.851 143.83C102.067 143.83 102.19 143.744 102.125 143.64C102.059 143.532 102.218 143.45 102.494 143.45C102.761 143.45 102.98 143.364 102.98 143.26C102.98 143.155 103.112 143.07 103.273 143.07C103.434 143.07 103.75 142.899 103.974 142.69C104.198 142.481 104.494 142.31 104.631 142.31C104.768 142.31 104.88 142.224 104.88 142.12C104.88 142.015 105.051 141.93 105.26 141.93C105.469 141.93 105.64 141.844 105.64 141.74C105.64 141.635 105.816 141.55 106.031 141.55C106.247 141.55 106.37 141.464 106.305 141.36C106.24 141.255 106.363 141.17 106.579 141.17C106.794 141.17 106.97 141.084 106.97 140.98C106.97 140.875 107.141 140.79 107.35 140.79C107.559 140.79 107.73 140.704 107.73 140.6C107.73 140.495 107.842 140.41 107.979 140.41C108.116 140.41 108.412 140.239 108.636 140.03C108.861 139.821 109.139 139.65 109.256 139.65C109.372 139.65 109.596 139.521 109.754 139.363C109.912 139.205 110.119 139.125 110.215 139.184C110.312 139.244 110.39 139.202 110.39 139.091C110.39 138.981 110.524 138.89 110.689 138.89C110.853 138.89 111.115 138.762 111.272 138.605C111.429 138.448 111.722 138.32 111.924 138.32C112.125 138.32 112.29 138.244 112.29 138.152C112.29 138.06 112.44 137.935 112.623 137.875C112.805 137.815 113.321 137.549 113.768 137.283C114.215 137.017 114.706 136.8 114.86 136.8C115.014 136.8 115.14 136.725 115.14 136.633C115.14 136.541 115.397 136.36 115.71 136.23C116.024 136.1 116.28 135.919 116.28 135.827C116.28 135.735 116.451 135.66 116.66 135.66C116.869 135.66 117.04 135.574 117.04 135.47C117.04 135.365 117.211 135.28 117.42 135.28C117.629 135.28 117.8 135.194 117.8 135.09C117.8 134.985 117.962 134.9 118.16 134.9C118.376 134.9 118.562 134.726 118.628 134.463C118.693 134.207 119.073 133.844 119.551 133.583C119.999 133.339 120.835 132.882 121.41 132.567C123.329 131.517 123.747 131.34 124.1 131.432C124.292 131.483 124.45 131.429 124.45 131.312C124.45 131.195 124.621 131.1 124.83 131.1C125.039 131.1 125.21 131.014 125.21 130.91C125.21 130.805 125.343 130.72 125.505 130.72C125.799 130.72 126.931 130.199 127.11 129.981C127.294 129.757 128.058 129.39 128.343 129.39C128.501 129.39 128.63 129.321 128.63 129.236C128.63 129.151 128.929 128.963 129.295 128.82C129.661 128.676 129.96 128.5 129.96 128.428C129.96 128.355 130.217 128.19 130.53 128.06C130.844 127.93 131.1 127.749 131.1 127.657C131.1 127.565 131.271 127.49 131.48 127.49C131.689 127.49 131.86 127.404 131.86 127.3C131.86 127.195 132.031 127.11 132.24 127.11C132.449 127.11 132.62 127.024 132.62 126.92C132.62 126.815 132.791 126.73 133 126.73C133.209 126.73 133.38 126.644 133.38 126.54C133.38 126.435 133.492 126.35 133.629 126.35C133.766 126.35 134.062 126.179 134.286 125.97C134.511 125.761 134.788 125.59 134.903 125.59C135.018 125.59 135.06 125.504 134.995 125.4C134.93 125.295 135.013 125.21 135.178 125.21C135.433 125.21 137.628 123.217 137.53 123.074C137.511 123.047 137.723 122.663 138.003 122.221C138.282 121.779 138.51 121.287 138.51 121.129C138.51 120.97 138.596 120.84 138.7 120.84C138.805 120.84 138.89 120.674 138.89 120.471C138.89 120.268 138.976 120.049 139.08 119.985C139.185 119.92 139.27 119.616 139.27 119.308C139.27 119.001 139.356 118.75 139.46 118.75C139.571 118.75 139.65 118.117 139.65 117.23C139.65 115.689 139.394 115.292 138.786 115.886C138.624 116.043 134.523 118.37 134.407 118.37C134.381 118.37 133.62 118.797 132.715 119.32C131.81 119.842 131.045 120.27 131.015 120.27C130.984 120.27 130.128 120.74 129.114 121.315C128.098 121.89 127.236 122.36 127.197 122.36C127.158 122.36 126.717 122.601 126.216 122.896C125.715 123.191 124.621 123.804 123.785 124.258C122.949 124.713 121.966 125.253 121.6 125.459C120.71 125.96 119.653 126.547 118.275 127.303C117.648 127.648 115.639 128.76 113.81 129.775C109.925 131.931 108.613 132.606 107.827 132.851C105.481 133.581 103.458 133.758 101.957 133.365C101.527 133.252 100.833 133.068 100.415 132.955C99.4569 132.698 96.4355 131.14 91.0575 128.132C90.6134 127.883 89.8653 127.466 89.395 127.205C88.9248 126.944 88.1339 126.503 87.6375 126.226C87.1411 125.949 86.1793 125.422 85.5 125.056C84.8208 124.689 82.8543 123.604 81.13 122.645C77.9746 120.889 76.6892 120.179 74.765 119.13C71.2434 117.209 70.5921 116.85 69.35 116.147C68.9843 115.94 68.001 115.399 67.165 114.946C64.7767 113.649 63.5612 112.761 62.5718 111.59C62.0673 110.994 61.2465 110.114 60.7468 109.635C59.0881 108.043 59.2282 110.433 59.3061 85.1199L59.375 62.6049L58.71 62.5512C58.2098 62.5108 58.1158 62.5455 58.33 62.6909Z" fill="#14A927"/>
</svg>
